<svg xmlns="http://www.w3.org/2000/svg" width="1000" height="480" viewBox="0 0 1000 480" role="img" aria-labelledby="title desc"><title id="title">Schwerkraft — Forschungsschema</title><desc id="desc">Krümmung verändert Wege. Befunde: Fernfeld und Lichtablenkung gerechnet. Perihel aus Netzwerten: PPN-Arithmetik. Offen: Nahfeld und dynamischer Kollaps.. Subjektiver Entwicklungsstand 55 Prozent, kein Messwert.</desc><rect width="1000" height="480" rx="22" fill="#0b1423"/><rect x="1" y="1" width="998" height="478" rx="21" fill="none" stroke="#2d3a4e"/><g font-family="DejaVu Sans, sans-serif"><text x="35" y="43" font-size="13" fill="#60dbc2" font-weight="600" text-anchor="start">FORSCHUNGSATLAS / 02</text><text x="35" y="90" font-size="31" fill="#f2f5fa" font-weight="600" text-anchor="start">Schwerkraft</text><text x="35" y="120" font-size="18" fill="#acb8cd" font-weight="400" text-anchor="start">Krümmung verändert Wege</text><text x="960" y="67" font-size="31" fill="#60dbc2" font-weight="600" text-anchor="end">55 %</text><text x="960" y="92" font-size="13" fill="#acb8cd" font-weight="400" text-anchor="end">subjektive Schätzung</text><rect x="790" y="108" width="170" height="5" rx="2" fill="#26374c"/><rect x="790" y="108" width="93.5" height="5" rx="2" fill="#60dbc2"/><path d="M 60 170 Q 225 225 390 170" fill="none" stroke="#2c425c" stroke-width="1.5"/><path d="M 60 196 Q 225 251 390 196" fill="none" stroke="#2c425c" stroke-width="1.5"/><path d="M 60 222 Q 225 277 390 222" fill="none" stroke="#2c425c" stroke-width="1.5"/><path d="M 60 248 Q 225 303 390 248" fill="none" stroke="#2c425c" stroke-width="1.5"/><path d="M 60 274 Q 225 329 390 274" fill="none" stroke="#2c425c" stroke-width="1.5"/><path d="M 60 300 Q 225 355 390 300" fill="none" stroke="#2c425c" stroke-width="1.5"/><path d="M 85 150 Q 162.0 235 85 320" fill="none" stroke="#2c425c" stroke-width="1.5"/><path d="M 135 150 Q 184.5 235 135 320" fill="none" stroke="#2c425c" stroke-width="1.5"/><path d="M 185 150 Q 207.0 235 185 320" fill="none" stroke="#2c425c" stroke-width="1.5"/><path d="M 235 150 Q 229.5 235 235 320" fill="none" stroke="#2c425c" stroke-width="1.5"/><path d="M 285 150 Q 252.0 235 285 320" fill="none" stroke="#2c425c" stroke-width="1.5"/><path d="M 335 150 Q 274.5 235 335 320" fill="none" stroke="#2c425c" stroke-width="1.5"/><path d="M 385 150 Q 297.0 235 385 320" fill="none" stroke="#2c425c" stroke-width="1.5"/><circle cx="225" cy="247" r="25" stroke="#86aaff" stroke-width="2" fill="#263856"/><path d="M 65 180 Q 190 185 220 200 T 390 225" fill="none" stroke="#f6c776" stroke-width="4"/><text x="225" y="345" font-size="17" fill="#acb8cd" font-weight="400" text-anchor="middle">Lichtweg im gekrümmten Netz</text><line x1="454" y1="160" x2="454" y2="360" stroke="#26374c" stroke-width="1"/><text x="490" y="181" font-size="13" fill="#60dbc2" font-weight="600" text-anchor="start">BEFUNDE / VORARBEITEN</text><text x="490" y="217" font-size="18" fill="#f2f5fa" font-weight="400" text-anchor="start">Fernfeld und Lichtablenkung gerechnet.</text><text x="490" y="246" font-size="18" fill="#f2f5fa" font-weight="400" text-anchor="start">Perihel aus Netzwerten: PPN-Arithmetik.</text><text x="490" y="291" font-size="13" fill="#f6c776" font-weight="600" text-anchor="start">OFFENE FRAGE</text><text x="490" y="323" font-size="18" fill="#f2f5fa" font-weight="400" text-anchor="start">Nahfeld und dynamischer Kollaps.</text><line x1="35" y1="391" x2="965" y2="391" stroke="#26374c" stroke-width="1"/><text x="35" y="423" font-size="14" fill="#acb8cd" font-weight="400" text-anchor="start">SCHEMA · keine Messdaten · keine maßstäbliche Darstellung</text><text x="35" y="449" font-size="13" fill="#acb8cd" font-weight="400" text-anchor="start">Stand 07.10.2026 · Befunde und Grenzen: verlinkte Projektberichte</text></g></svg>