<?xml version="1.0" encoding="utf-8" standalone="no"?>
<!DOCTYPE svg PUBLIC "-//W3C//DTD SVG 1.1//EN"
  "http://www.w3.org/Graphics/SVG/1.1/DTD/svg11.dtd">
<svg xmlns:xlink="http://www.w3.org/1999/xlink" width="864pt" height="388.8pt" viewBox="0 0 864 388.8" xmlns="http://www.w3.org/2000/svg" version="1.1">
 <metadata>
  <rdf:RDF xmlns:dc="http://purl.org/dc/elements/1.1/" xmlns:cc="http://creativecommons.org/ns#" xmlns:rdf="http://www.w3.org/1999/02/22-rdf-syntax-ns#">
   <cc:Work>
    <dc:type rdf:resource="http://purl.org/dc/dcmitype/StillImage"/>
    <dc:date>2026-09-30T08:17:47.248665</dc:date>
    <dc:format>image/svg+xml</dc:format>
    <dc:creator>
     <cc:Agent>
      <dc:title>Matplotlib v3.11.2, https://matplotlib.org/</dc:title>
     </cc:Agent>
    </dc:creator>
   </cc:Work>
  </rdf:RDF>
 </metadata>
 <defs>
  <style type="text/css">*{stroke-linejoin: round; stroke-linecap: butt}</style>
 </defs>
 <g id="figure_1">
  <g id="patch_1">
   <path d="M 0 388.8 
L 864 388.8 
L 864 0 
L 0 0 
z
" style="fill: #ffffff"/>
  </g>
  <g id="axes_1">
   <g id="patch_2">
    <path d="M 56.449068 273.071619 
L 427.68 273.071619 
L 427.68 38.031673 
L 56.449068 38.031673 
z
" style="fill: #ffffff"/>
   </g>
   <g id="matplotlib.axis_1">
    <g id="xtick_1">
     <g id="line2d_1">
      <defs>
       <path id="m4e8ed240d4" d="M 0 0 
L 0 3.5 
" style="stroke: #000000; stroke-width: 0.8"/>
      </defs>
      <g>
       <use xlink:href="#m4e8ed240d4" x="73.323201" y="273.071619" style="stroke: #000000; stroke-width: 0.8"/>
      </g>
     </g>
     <g id="text_1">
      <!-- 3.900 -->
      <g transform="translate(57.577733 288.429041) scale(0.11 -0.11)">
       <defs>
        <path id="DejaVuSans-16" d="M 2597 2516 
Q 3050 2419 3304 2112 
Q 3559 1806 3559 1356 
Q 3559 666 3084 287 
Q 2609 -91 1734 -91 
Q 1441 -91 1130 -33 
Q 819 25 488 141 
L 488 750 
Q 750 597 1062 519 
Q 1375 441 1716 441 
Q 2309 441 2620 675 
Q 2931 909 2931 1356 
Q 2931 1769 2642 2001 
Q 2353 2234 1838 2234 
L 1294 2234 
L 1294 2753 
L 1863 2753 
Q 2328 2753 2575 2939 
Q 2822 3125 2822 3475 
Q 2822 3834 2567 4026 
Q 2313 4219 1838 4219 
Q 1578 4219 1281 4162 
Q 984 4106 628 3988 
L 628 4550 
Q 988 4650 1302 4700 
Q 1616 4750 1894 4750 
Q 2613 4750 3031 4423 
Q 3450 4097 3450 3541 
Q 3450 3153 3228 2886 
Q 3006 2619 2597 2516 
z
" transform="scale(0.015625)"/>
        <path id="DejaVuSans-11" d="M 684 794 
L 1344 794 
L 1344 0 
L 684 0 
L 684 794 
z
" transform="scale(0.015625)"/>
        <path id="DejaVuSans-1c" d="M 703 97 
L 703 672 
Q 941 559 1184 500 
Q 1428 441 1663 441 
Q 2288 441 2617 861 
Q 2947 1281 2994 2138 
Q 2813 1869 2534 1725 
Q 2256 1581 1919 1581 
Q 1219 1581 811 2004 
Q 403 2428 403 3163 
Q 403 3881 828 4315 
Q 1253 4750 1959 4750 
Q 2769 4750 3195 4129 
Q 3622 3509 3622 2328 
Q 3622 1225 3098 567 
Q 2575 -91 1691 -91 
Q 1453 -91 1209 -44 
Q 966 3 703 97 
z
M 1959 2075 
Q 2384 2075 2632 2365 
Q 2881 2656 2881 3163 
Q 2881 3666 2632 3958 
Q 2384 4250 1959 4250 
Q 1534 4250 1286 3958 
Q 1038 3666 1038 3163 
Q 1038 2656 1286 2365 
Q 1534 2075 1959 2075 
z
" transform="scale(0.015625)"/>
        <path id="DejaVuSans-13" d="M 2034 4250 
Q 1547 4250 1301 3770 
Q 1056 3291 1056 2328 
Q 1056 1369 1301 889 
Q 1547 409 2034 409 
Q 2525 409 2770 889 
Q 3016 1369 3016 2328 
Q 3016 3291 2770 3770 
Q 2525 4250 2034 4250 
z
M 2034 4750 
Q 2819 4750 3233 4129 
Q 3647 3509 3647 2328 
Q 3647 1150 3233 529 
Q 2819 -91 2034 -91 
Q 1250 -91 836 529 
Q 422 1150 422 2328 
Q 422 3509 836 4129 
Q 1250 4750 2034 4750 
z
" transform="scale(0.015625)"/>
       </defs>
       <use xlink:href="#DejaVuSans-16"/>
       <use xlink:href="#DejaVuSans-11" transform="translate(63.625 0)"/>
       <use xlink:href="#DejaVuSans-1c" transform="translate(95.40625 0)"/>
       <use xlink:href="#DejaVuSans-13" transform="translate(159.03125 0)"/>
       <use xlink:href="#DejaVuSans-13" transform="translate(222.65625 0)"/>
      </g>
     </g>
    </g>
    <g id="xtick_2">
     <g id="line2d_2">
      <g>
       <use xlink:href="#m4e8ed240d4" x="115.508535" y="273.071619" style="stroke: #000000; stroke-width: 0.8"/>
      </g>
     </g>
     <g id="text_2">
      <!-- 3.925 -->
      <g transform="translate(99.763066 288.429041) scale(0.11 -0.11)">
       <defs>
        <path id="DejaVuSans-15" d="M 1228 531 
L 3431 531 
L 3431 0 
L 469 0 
L 469 531 
Q 828 903 1448 1529 
Q 2069 2156 2228 2338 
Q 2531 2678 2651 2914 
Q 2772 3150 2772 3378 
Q 2772 3750 2511 3984 
Q 2250 4219 1831 4219 
Q 1534 4219 1204 4116 
Q 875 4013 500 3803 
L 500 4441 
Q 881 4594 1212 4672 
Q 1544 4750 1819 4750 
Q 2544 4750 2975 4387 
Q 3406 4025 3406 3419 
Q 3406 3131 3298 2873 
Q 3191 2616 2906 2266 
Q 2828 2175 2409 1742 
Q 1991 1309 1228 531 
z
" transform="scale(0.015625)"/>
        <path id="DejaVuSans-18" d="M 691 4666 
L 3169 4666 
L 3169 4134 
L 1269 4134 
L 1269 2991 
Q 1406 3038 1543 3061 
Q 1681 3084 1819 3084 
Q 2600 3084 3056 2656 
Q 3513 2228 3513 1497 
Q 3513 744 3044 326 
Q 2575 -91 1722 -91 
Q 1428 -91 1123 -41 
Q 819 9 494 109 
L 494 744 
Q 775 591 1075 516 
Q 1375 441 1709 441 
Q 2250 441 2565 725 
Q 2881 1009 2881 1497 
Q 2881 1984 2565 2268 
Q 2250 2553 1709 2553 
Q 1456 2553 1204 2497 
Q 953 2441 691 2322 
L 691 4666 
z
" transform="scale(0.015625)"/>
       </defs>
       <use xlink:href="#DejaVuSans-16"/>
       <use xlink:href="#DejaVuSans-11" transform="translate(63.625 0)"/>
       <use xlink:href="#DejaVuSans-1c" transform="translate(95.40625 0)"/>
       <use xlink:href="#DejaVuSans-15" transform="translate(159.03125 0)"/>
       <use xlink:href="#DejaVuSans-18" transform="translate(222.65625 0)"/>
      </g>
     </g>
    </g>
    <g id="xtick_3">
     <g id="line2d_3">
      <g>
       <use xlink:href="#m4e8ed240d4" x="157.693868" y="273.071619" style="stroke: #000000; stroke-width: 0.8"/>
      </g>
     </g>
     <g id="text_3">
      <!-- 3.950 -->
      <g transform="translate(141.948399 288.429041) scale(0.11 -0.11)">
       <use xlink:href="#DejaVuSans-16"/>
       <use xlink:href="#DejaVuSans-11" transform="translate(63.625 0)"/>
       <use xlink:href="#DejaVuSans-1c" transform="translate(95.40625 0)"/>
       <use xlink:href="#DejaVuSans-18" transform="translate(159.03125 0)"/>
       <use xlink:href="#DejaVuSans-13" transform="translate(222.65625 0)"/>
      </g>
     </g>
    </g>
    <g id="xtick_4">
     <g id="line2d_4">
      <g>
       <use xlink:href="#m4e8ed240d4" x="199.879201" y="273.071619" style="stroke: #000000; stroke-width: 0.8"/>
      </g>
     </g>
     <g id="text_4">
      <!-- 3.975 -->
      <g transform="translate(184.133732 288.429041) scale(0.11 -0.11)">
       <defs>
        <path id="DejaVuSans-1a" d="M 525 4666 
L 3525 4666 
L 3525 4397 
L 1831 0 
L 1172 0 
L 2766 4134 
L 525 4134 
L 525 4666 
z
" transform="scale(0.015625)"/>
       </defs>
       <use xlink:href="#DejaVuSans-16"/>
       <use xlink:href="#DejaVuSans-11" transform="translate(63.625 0)"/>
       <use xlink:href="#DejaVuSans-1c" transform="translate(95.40625 0)"/>
       <use xlink:href="#DejaVuSans-1a" transform="translate(159.03125 0)"/>
       <use xlink:href="#DejaVuSans-18" transform="translate(222.65625 0)"/>
      </g>
     </g>
    </g>
    <g id="xtick_5">
     <g id="line2d_5">
      <g>
       <use xlink:href="#m4e8ed240d4" x="242.064534" y="273.071619" style="stroke: #000000; stroke-width: 0.8"/>
      </g>
     </g>
     <g id="text_5">
      <!-- 4.000 -->
      <g transform="translate(226.319065 288.429041) scale(0.11 -0.11)">
       <defs>
        <path id="DejaVuSans-17" d="M 2419 4116 
L 825 1625 
L 2419 1625 
L 2419 4116 
z
M 2253 4666 
L 3047 4666 
L 3047 1625 
L 3713 1625 
L 3713 1100 
L 3047 1100 
L 3047 0 
L 2419 0 
L 2419 1100 
L 313 1100 
L 313 1709 
L 2253 4666 
z
" transform="scale(0.015625)"/>
       </defs>
       <use xlink:href="#DejaVuSans-17"/>
       <use xlink:href="#DejaVuSans-11" transform="translate(63.625 0)"/>
       <use xlink:href="#DejaVuSans-13" transform="translate(95.40625 0)"/>
       <use xlink:href="#DejaVuSans-13" transform="translate(159.03125 0)"/>
       <use xlink:href="#DejaVuSans-13" transform="translate(222.65625 0)"/>
      </g>
     </g>
    </g>
    <g id="xtick_6">
     <g id="line2d_6">
      <g>
       <use xlink:href="#m4e8ed240d4" x="284.249867" y="273.071619" style="stroke: #000000; stroke-width: 0.8"/>
      </g>
     </g>
     <g id="text_6">
      <!-- 4.025 -->
      <g transform="translate(268.504398 288.429041) scale(0.11 -0.11)">
       <use xlink:href="#DejaVuSans-17"/>
       <use xlink:href="#DejaVuSans-11" transform="translate(63.625 0)"/>
       <use xlink:href="#DejaVuSans-13" transform="translate(95.40625 0)"/>
       <use xlink:href="#DejaVuSans-15" transform="translate(159.03125 0)"/>
       <use xlink:href="#DejaVuSans-18" transform="translate(222.65625 0)"/>
      </g>
     </g>
    </g>
    <g id="xtick_7">
     <g id="line2d_7">
      <g>
       <use xlink:href="#m4e8ed240d4" x="326.4352" y="273.071619" style="stroke: #000000; stroke-width: 0.8"/>
      </g>
     </g>
     <g id="text_7">
      <!-- 4.050 -->
      <g transform="translate(310.689732 288.429041) scale(0.11 -0.11)">
       <use xlink:href="#DejaVuSans-17"/>
       <use xlink:href="#DejaVuSans-11" transform="translate(63.625 0)"/>
       <use xlink:href="#DejaVuSans-13" transform="translate(95.40625 0)"/>
       <use xlink:href="#DejaVuSans-18" transform="translate(159.03125 0)"/>
       <use xlink:href="#DejaVuSans-13" transform="translate(222.65625 0)"/>
      </g>
     </g>
    </g>
    <g id="xtick_8">
     <g id="line2d_8">
      <g>
       <use xlink:href="#m4e8ed240d4" x="368.620534" y="273.071619" style="stroke: #000000; stroke-width: 0.8"/>
      </g>
     </g>
     <g id="text_8">
      <!-- 4.075 -->
      <g transform="translate(352.875065 288.429041) scale(0.11 -0.11)">
       <use xlink:href="#DejaVuSans-17"/>
       <use xlink:href="#DejaVuSans-11" transform="translate(63.625 0)"/>
       <use xlink:href="#DejaVuSans-13" transform="translate(95.40625 0)"/>
       <use xlink:href="#DejaVuSans-1a" transform="translate(159.03125 0)"/>
       <use xlink:href="#DejaVuSans-18" transform="translate(222.65625 0)"/>
      </g>
     </g>
    </g>
    <g id="xtick_9">
     <g id="line2d_9">
      <g>
       <use xlink:href="#m4e8ed240d4" x="410.805867" y="273.071619" style="stroke: #000000; stroke-width: 0.8"/>
      </g>
     </g>
     <g id="text_9">
      <!-- 4.100 -->
      <g transform="translate(395.060398 288.429041) scale(0.11 -0.11)">
       <defs>
        <path id="DejaVuSans-14" d="M 794 531 
L 1825 531 
L 1825 4091 
L 703 3866 
L 703 4441 
L 1819 4666 
L 2450 4666 
L 2450 531 
L 3481 531 
L 3481 0 
L 794 0 
L 794 531 
z
" transform="scale(0.015625)"/>
       </defs>
       <use xlink:href="#DejaVuSans-17"/>
       <use xlink:href="#DejaVuSans-11" transform="translate(63.625 0)"/>
       <use xlink:href="#DejaVuSans-14" transform="translate(95.40625 0)"/>
       <use xlink:href="#DejaVuSans-13" transform="translate(159.03125 0)"/>
       <use xlink:href="#DejaVuSans-13" transform="translate(222.65625 0)"/>
      </g>
     </g>
    </g>
    <g id="text_10">
     <!-- Tiefe der äußeren Schalenmulde -->
     <g transform="translate(152.53055 303.4299) scale(0.11 -0.11)">
      <defs>
       <path id="DejaVuSans-37" d="M -19 4666 
L 3928 4666 
L 3928 4134 
L 2272 4134 
L 2272 0 
L 1638 0 
L 1638 4134 
L -19 4134 
L -19 4666 
z
" transform="scale(0.015625)"/>
       <path id="DejaVuSans-4c" d="M 603 3500 
L 1178 3500 
L 1178 0 
L 603 0 
L 603 3500 
z
M 603 4863 
L 1178 4863 
L 1178 4134 
L 603 4134 
L 603 4863 
z
" transform="scale(0.015625)"/>
       <path id="DejaVuSans-48" d="M 3597 1894 
L 3597 1613 
L 953 1613 
Q 991 1019 1311 708 
Q 1631 397 2203 397 
Q 2534 397 2845 478 
Q 3156 559 3463 722 
L 3463 178 
Q 3153 47 2828 -22 
Q 2503 -91 2169 -91 
Q 1331 -91 842 396 
Q 353 884 353 1716 
Q 353 2575 817 3079 
Q 1281 3584 2069 3584 
Q 2775 3584 3186 3129 
Q 3597 2675 3597 1894 
z
M 3022 2063 
Q 3016 2534 2758 2815 
Q 2500 3097 2075 3097 
Q 1594 3097 1305 2825 
Q 1016 2553 972 2059 
L 3022 2063 
z
" transform="scale(0.015625)"/>
       <path id="DejaVuSans-49" d="M 2375 4863 
L 2375 4384 
L 1825 4384 
Q 1516 4384 1395 4259 
Q 1275 4134 1275 3809 
L 1275 3500 
L 2222 3500 
L 2222 3053 
L 1275 3053 
L 1275 0 
L 697 0 
L 697 3053 
L 147 3053 
L 147 3500 
L 697 3500 
L 697 3744 
Q 697 4328 969 4595 
Q 1241 4863 1831 4863 
L 2375 4863 
z
" transform="scale(0.015625)"/>
       <path id="DejaVuSans-3" transform="scale(0.015625)"/>
       <path id="DejaVuSans-47" d="M 2906 2969 
L 2906 4863 
L 3481 4863 
L 3481 0 
L 2906 0 
L 2906 525 
Q 2725 213 2448 61 
Q 2172 -91 1784 -91 
Q 1150 -91 751 415 
Q 353 922 353 1747 
Q 353 2572 751 3078 
Q 1150 3584 1784 3584 
Q 2172 3584 2448 3432 
Q 2725 3281 2906 2969 
z
M 947 1747 
Q 947 1113 1208 752 
Q 1469 391 1925 391 
Q 2381 391 2643 752 
Q 2906 1113 2906 1747 
Q 2906 2381 2643 2742 
Q 2381 3103 1925 3103 
Q 1469 3103 1208 2742 
Q 947 2381 947 1747 
z
" transform="scale(0.015625)"/>
       <path id="DejaVuSans-55" d="M 2631 2963 
Q 2534 3019 2420 3045 
Q 2306 3072 2169 3072 
Q 1681 3072 1420 2755 
Q 1159 2438 1159 1844 
L 1159 0 
L 581 0 
L 581 3500 
L 1159 3500 
L 1159 2956 
Q 1341 3275 1631 3429 
Q 1922 3584 2338 3584 
Q 2397 3584 2469 3576 
Q 2541 3569 2628 3553 
L 2631 2963 
z
" transform="scale(0.015625)"/>
       <path id="DejaVuSans-a6" d="M 2194 1759 
Q 1497 1759 1228 1600 
Q 959 1441 959 1056 
Q 959 750 1161 570 
Q 1363 391 1709 391 
Q 2188 391 2477 730 
Q 2766 1069 2766 1631 
L 2766 1759 
L 2194 1759 
z
M 3341 1997 
L 3341 0 
L 2766 0 
L 2766 531 
Q 2569 213 2275 61 
Q 1981 -91 1556 -91 
Q 1019 -91 701 211 
Q 384 513 384 1019 
Q 384 1609 779 1909 
Q 1175 2209 1959 2209 
L 2766 2209 
L 2766 2266 
Q 2766 2663 2505 2880 
Q 2244 3097 1772 3097 
Q 1472 3097 1187 3025 
Q 903 2953 641 2809 
L 641 3341 
Q 956 3463 1253 3523 
Q 1550 3584 1831 3584 
Q 2591 3584 2966 3190 
Q 3341 2797 3341 1997 
z
M 2150 4850 
L 2784 4850 
L 2784 4219 
L 2150 4219 
L 2150 4850 
z
M 928 4850 
L 1562 4850 
L 1562 4219 
L 928 4219 
L 928 4850 
z
" transform="scale(0.015625)"/>
       <path id="DejaVuSans-58" d="M 544 1381 
L 544 3500 
L 1119 3500 
L 1119 1403 
Q 1119 906 1312 657 
Q 1506 409 1894 409 
Q 2359 409 2629 706 
Q 2900 1003 2900 1516 
L 2900 3500 
L 3475 3500 
L 3475 0 
L 2900 0 
L 2900 538 
Q 2691 219 2414 64 
Q 2138 -91 1772 -91 
Q 1169 -91 856 284 
Q 544 659 544 1381 
z
M 1991 3584 
L 1991 3584 
z
" transform="scale(0.015625)"/>
       <path id="DejaVuSans-a1" d="M 581 3553 
Q 581 4178 954 4520 
Q 1328 4863 2009 4863 
Q 2659 4863 3001 4500 
Q 3344 4138 3353 3438 
Q 2881 3413 2618 3233 
Q 2356 3053 2356 2753 
Q 2356 2606 2447 2479 
Q 2538 2353 2741 2222 
L 2919 2106 
Q 3438 1775 3588 1553 
Q 3738 1331 3738 1019 
Q 3738 481 3386 195 
Q 3034 -91 2375 -91 
Q 2175 -91 1962 -52 
Q 1750 -13 1522 63 
L 1522 575 
Q 1772 481 1990 436 
Q 2209 391 2413 391 
Q 2775 391 2962 539 
Q 3150 688 3150 972 
Q 3150 1169 3058 1300 
Q 2966 1431 2650 1625 
L 2363 1797 
Q 2063 1981 1927 2192 
Q 1791 2403 1791 2688 
Q 1791 3084 2052 3353 
Q 2313 3622 2784 3713 
Q 2759 4034 2554 4209 
Q 2350 4384 1997 4384 
Q 1591 4384 1378 4167 
Q 1166 3950 1166 3541 
L 1166 0 
L 581 0 
L 581 3553 
z
" transform="scale(0.015625)"/>
       <path id="DejaVuSans-51" d="M 3513 2113 
L 3513 0 
L 2938 0 
L 2938 2094 
Q 2938 2591 2744 2837 
Q 2550 3084 2163 3084 
Q 1697 3084 1428 2787 
Q 1159 2491 1159 1978 
L 1159 0 
L 581 0 
L 581 3500 
L 1159 3500 
L 1159 2956 
Q 1366 3272 1645 3428 
Q 1925 3584 2291 3584 
Q 2894 3584 3203 3211 
Q 3513 2838 3513 2113 
z
" transform="scale(0.015625)"/>
       <path id="DejaVuSans-36" d="M 3425 4513 
L 3425 3897 
Q 3066 4069 2747 4153 
Q 2428 4238 2131 4238 
Q 1616 4238 1336 4038 
Q 1056 3838 1056 3469 
Q 1056 3159 1242 3001 
Q 1428 2844 1947 2747 
L 2328 2669 
Q 3034 2534 3370 2195 
Q 3706 1856 3706 1288 
Q 3706 609 3251 259 
Q 2797 -91 1919 -91 
Q 1588 -91 1214 -16 
Q 841 59 441 206 
L 441 856 
Q 825 641 1194 531 
Q 1563 422 1919 422 
Q 2459 422 2753 634 
Q 3047 847 3047 1241 
Q 3047 1584 2836 1778 
Q 2625 1972 2144 2069 
L 1759 2144 
Q 1053 2284 737 2584 
Q 422 2884 422 3419 
Q 422 4038 858 4394 
Q 1294 4750 2059 4750 
Q 2388 4750 2728 4690 
Q 3069 4631 3425 4513 
z
" transform="scale(0.015625)"/>
       <path id="DejaVuSans-46" d="M 3122 3366 
L 3122 2828 
Q 2878 2963 2633 3030 
Q 2388 3097 2138 3097 
Q 1578 3097 1268 2742 
Q 959 2388 959 1747 
Q 959 1106 1268 751 
Q 1578 397 2138 397 
Q 2388 397 2633 464 
Q 2878 531 3122 666 
L 3122 134 
Q 2881 22 2623 -34 
Q 2366 -91 2075 -91 
Q 1284 -91 818 406 
Q 353 903 353 1747 
Q 353 2603 823 3093 
Q 1294 3584 2113 3584 
Q 2378 3584 2631 3529 
Q 2884 3475 3122 3366 
z
" transform="scale(0.015625)"/>
       <path id="DejaVuSans-4b" d="M 3513 2113 
L 3513 0 
L 2938 0 
L 2938 2094 
Q 2938 2591 2744 2837 
Q 2550 3084 2163 3084 
Q 1697 3084 1428 2787 
Q 1159 2491 1159 1978 
L 1159 0 
L 581 0 
L 581 4863 
L 1159 4863 
L 1159 2956 
Q 1366 3272 1645 3428 
Q 1925 3584 2291 3584 
Q 2894 3584 3203 3211 
Q 3513 2838 3513 2113 
z
" transform="scale(0.015625)"/>
       <path id="DejaVuSans-44" d="M 2194 1759 
Q 1497 1759 1228 1600 
Q 959 1441 959 1056 
Q 959 750 1161 570 
Q 1363 391 1709 391 
Q 2188 391 2477 730 
Q 2766 1069 2766 1631 
L 2766 1759 
L 2194 1759 
z
M 3341 1997 
L 3341 0 
L 2766 0 
L 2766 531 
Q 2569 213 2275 61 
Q 1981 -91 1556 -91 
Q 1019 -91 701 211 
Q 384 513 384 1019 
Q 384 1609 779 1909 
Q 1175 2209 1959 2209 
L 2766 2209 
L 2766 2266 
Q 2766 2663 2505 2880 
Q 2244 3097 1772 3097 
Q 1472 3097 1187 3025 
Q 903 2953 641 2809 
L 641 3341 
Q 956 3463 1253 3523 
Q 1550 3584 1831 3584 
Q 2591 3584 2966 3190 
Q 3341 2797 3341 1997 
z
" transform="scale(0.015625)"/>
       <path id="DejaVuSans-4f" d="M 603 4863 
L 1178 4863 
L 1178 0 
L 603 0 
L 603 4863 
z
" transform="scale(0.015625)"/>
       <path id="DejaVuSans-50" d="M 3328 2828 
Q 3544 3216 3844 3400 
Q 4144 3584 4550 3584 
Q 5097 3584 5394 3201 
Q 5691 2819 5691 2113 
L 5691 0 
L 5113 0 
L 5113 2094 
Q 5113 2597 4934 2840 
Q 4756 3084 4391 3084 
Q 3944 3084 3684 2787 
Q 3425 2491 3425 1978 
L 3425 0 
L 2847 0 
L 2847 2094 
Q 2847 2600 2669 2842 
Q 2491 3084 2119 3084 
Q 1678 3084 1418 2786 
Q 1159 2488 1159 1978 
L 1159 0 
L 581 0 
L 581 3500 
L 1159 3500 
L 1159 2956 
Q 1356 3278 1631 3431 
Q 1906 3584 2284 3584 
Q 2666 3584 2933 3390 
Q 3200 3197 3328 2828 
z
" transform="scale(0.015625)"/>
      </defs>
      <use xlink:href="#DejaVuSans-37"/>
      <use xlink:href="#DejaVuSans-4c" transform="translate(58 0)"/>
      <use xlink:href="#DejaVuSans-48" transform="translate(85.78125 0)"/>
      <use xlink:href="#DejaVuSans-49" transform="translate(147.3125 0)"/>
      <use xlink:href="#DejaVuSans-48" transform="translate(182.515625 0)"/>
      <use xlink:href="#DejaVuSans-3" transform="translate(244.046875 0)"/>
      <use xlink:href="#DejaVuSans-47" transform="translate(275.828125 0)"/>
      <use xlink:href="#DejaVuSans-48" transform="translate(339.3125 0)"/>
      <use xlink:href="#DejaVuSans-55" transform="translate(400.84375 0)"/>
      <use xlink:href="#DejaVuSans-3" transform="translate(441.953125 0)"/>
      <use xlink:href="#DejaVuSans-a6" transform="translate(473.734375 0)"/>
      <use xlink:href="#DejaVuSans-58" transform="translate(535.015625 0)"/>
      <use xlink:href="#DejaVuSans-a1" transform="translate(598.390625 0)"/>
      <use xlink:href="#DejaVuSans-48" transform="translate(661.375 0)"/>
      <use xlink:href="#DejaVuSans-55" transform="translate(722.90625 0)"/>
      <use xlink:href="#DejaVuSans-48" transform="translate(761.8125 0)"/>
      <use xlink:href="#DejaVuSans-51" transform="translate(823.34375 0)"/>
      <use xlink:href="#DejaVuSans-3" transform="translate(886.71875 0)"/>
      <use xlink:href="#DejaVuSans-36" transform="translate(918.5 0)"/>
      <use xlink:href="#DejaVuSans-46" transform="translate(981.984375 0)"/>
      <use xlink:href="#DejaVuSans-4b" transform="translate(1036.96875 0)"/>
      <use xlink:href="#DejaVuSans-44" transform="translate(1100.34375 0)"/>
      <use xlink:href="#DejaVuSans-4f" transform="translate(1161.625 0)"/>
      <use xlink:href="#DejaVuSans-48" transform="translate(1189.40625 0)"/>
      <use xlink:href="#DejaVuSans-51" transform="translate(1250.9375 0)"/>
      <use xlink:href="#DejaVuSans-50" transform="translate(1314.3125 0)"/>
      <use xlink:href="#DejaVuSans-58" transform="translate(1411.71875 0)"/>
      <use xlink:href="#DejaVuSans-4f" transform="translate(1475.09375 0)"/>
      <use xlink:href="#DejaVuSans-47" transform="translate(1502.875 0)"/>
      <use xlink:href="#DejaVuSans-48" transform="translate(1566.359375 0)"/>
     </g>
    </g>
   </g>
   <g id="matplotlib.axis_2">
    <g id="ytick_1">
     <g id="line2d_10">
      <defs>
       <path id="ma0390336d9" d="M 0 0 
L -3.5 0 
" style="stroke: #000000; stroke-width: 0.8"/>
      </defs>
      <g>
       <use xlink:href="#ma0390336d9" x="56.449068" y="273.071619" style="stroke: #000000; stroke-width: 0.8"/>
      </g>
     </g>
     <g id="text_11">
      <!-- 0% -->
      <g transform="translate(31.998599 277.25033) scale(0.11 -0.11)">
       <defs>
        <path id="DejaVuSans-8" d="M 4653 2053 
Q 4381 2053 4226 1822 
Q 4072 1591 4072 1178 
Q 4072 772 4226 539 
Q 4381 306 4653 306 
Q 4919 306 5073 539 
Q 5228 772 5228 1178 
Q 5228 1588 5073 1820 
Q 4919 2053 4653 2053 
z
M 4653 2450 
Q 5147 2450 5437 2106 
Q 5728 1763 5728 1178 
Q 5728 594 5436 251 
Q 5144 -91 4653 -91 
Q 4153 -91 3862 251 
Q 3572 594 3572 1178 
Q 3572 1766 3864 2108 
Q 4156 2450 4653 2450 
z
M 1428 4353 
Q 1159 4353 1004 4120 
Q 850 3888 850 3481 
Q 850 3069 1003 2837 
Q 1156 2606 1428 2606 
Q 1700 2606 1854 2837 
Q 2009 3069 2009 3481 
Q 2009 3884 1853 4118 
Q 1697 4353 1428 4353 
z
M 4250 4750 
L 4750 4750 
L 1831 -91 
L 1331 -91 
L 4250 4750 
z
M 1428 4750 
Q 1922 4750 2215 4408 
Q 2509 4066 2509 3481 
Q 2509 2891 2217 2550 
Q 1925 2209 1428 2209 
Q 931 2209 642 2551 
Q 353 2894 353 3481 
Q 353 4063 643 4406 
Q 934 4750 1428 4750 
z
" transform="scale(0.015625)"/>
       </defs>
       <use xlink:href="#DejaVuSans-13"/>
       <use xlink:href="#DejaVuSans-8" transform="translate(63.625 0)"/>
      </g>
     </g>
    </g>
    <g id="ytick_2">
     <g id="line2d_11">
      <g>
       <use xlink:href="#ma0390336d9" x="56.449068" y="228.724459" style="stroke: #000000; stroke-width: 0.8"/>
      </g>
     </g>
     <g id="text_12">
      <!-- 20% -->
      <g transform="translate(24.999849 232.90317) scale(0.11 -0.11)">
       <use xlink:href="#DejaVuSans-15"/>
       <use xlink:href="#DejaVuSans-13" transform="translate(63.625 0)"/>
       <use xlink:href="#DejaVuSans-8" transform="translate(127.25 0)"/>
      </g>
     </g>
    </g>
    <g id="ytick_3">
     <g id="line2d_12">
      <g>
       <use xlink:href="#ma0390336d9" x="56.449068" y="184.3773" style="stroke: #000000; stroke-width: 0.8"/>
      </g>
     </g>
     <g id="text_13">
      <!-- 40% -->
      <g transform="translate(24.999849 188.556011) scale(0.11 -0.11)">
       <use xlink:href="#DejaVuSans-17"/>
       <use xlink:href="#DejaVuSans-13" transform="translate(63.625 0)"/>
       <use xlink:href="#DejaVuSans-8" transform="translate(127.25 0)"/>
      </g>
     </g>
    </g>
    <g id="ytick_4">
     <g id="line2d_13">
      <g>
       <use xlink:href="#ma0390336d9" x="56.449068" y="140.03014" style="stroke: #000000; stroke-width: 0.8"/>
      </g>
     </g>
     <g id="text_14">
      <!-- 60% -->
      <g transform="translate(24.999849 144.208851) scale(0.11 -0.11)">
       <defs>
        <path id="DejaVuSans-19" d="M 2113 2584 
Q 1688 2584 1439 2293 
Q 1191 2003 1191 1497 
Q 1191 994 1439 701 
Q 1688 409 2113 409 
Q 2538 409 2786 701 
Q 3034 994 3034 1497 
Q 3034 2003 2786 2293 
Q 2538 2584 2113 2584 
z
M 3366 4563 
L 3366 3988 
Q 3128 4100 2886 4159 
Q 2644 4219 2406 4219 
Q 1781 4219 1451 3797 
Q 1122 3375 1075 2522 
Q 1259 2794 1537 2939 
Q 1816 3084 2150 3084 
Q 2853 3084 3261 2657 
Q 3669 2231 3669 1497 
Q 3669 778 3244 343 
Q 2819 -91 2113 -91 
Q 1303 -91 875 529 
Q 447 1150 447 2328 
Q 447 3434 972 4092 
Q 1497 4750 2381 4750 
Q 2619 4750 2861 4703 
Q 3103 4656 3366 4563 
z
" transform="scale(0.015625)"/>
       </defs>
       <use xlink:href="#DejaVuSans-19"/>
       <use xlink:href="#DejaVuSans-13" transform="translate(63.625 0)"/>
       <use xlink:href="#DejaVuSans-8" transform="translate(127.25 0)"/>
      </g>
     </g>
    </g>
    <g id="ytick_5">
     <g id="line2d_14">
      <g>
       <use xlink:href="#ma0390336d9" x="56.449068" y="95.682981" style="stroke: #000000; stroke-width: 0.8"/>
      </g>
     </g>
     <g id="text_15">
      <!-- 80% -->
      <g transform="translate(24.999849 99.861692) scale(0.11 -0.11)">
       <defs>
        <path id="DejaVuSans-1b" d="M 2034 2216 
Q 1584 2216 1326 1975 
Q 1069 1734 1069 1313 
Q 1069 891 1326 650 
Q 1584 409 2034 409 
Q 2484 409 2743 651 
Q 3003 894 3003 1313 
Q 3003 1734 2745 1975 
Q 2488 2216 2034 2216 
z
M 1403 2484 
Q 997 2584 770 2862 
Q 544 3141 544 3541 
Q 544 4100 942 4425 
Q 1341 4750 2034 4750 
Q 2731 4750 3128 4425 
Q 3525 4100 3525 3541 
Q 3525 3141 3298 2862 
Q 3072 2584 2669 2484 
Q 3125 2378 3379 2068 
Q 3634 1759 3634 1313 
Q 3634 634 3220 271 
Q 2806 -91 2034 -91 
Q 1263 -91 848 271 
Q 434 634 434 1313 
Q 434 1759 690 2068 
Q 947 2378 1403 2484 
z
M 1172 3481 
Q 1172 3119 1398 2916 
Q 1625 2713 2034 2713 
Q 2441 2713 2670 2916 
Q 2900 3119 2900 3481 
Q 2900 3844 2670 4047 
Q 2441 4250 2034 4250 
Q 1625 4250 1398 4047 
Q 1172 3844 1172 3481 
z
" transform="scale(0.015625)"/>
       </defs>
       <use xlink:href="#DejaVuSans-1b"/>
       <use xlink:href="#DejaVuSans-13" transform="translate(63.625 0)"/>
       <use xlink:href="#DejaVuSans-8" transform="translate(127.25 0)"/>
      </g>
     </g>
    </g>
    <g id="ytick_6">
     <g id="line2d_15">
      <g>
       <use xlink:href="#ma0390336d9" x="56.449068" y="51.335821" style="stroke: #000000; stroke-width: 0.8"/>
      </g>
     </g>
     <g id="text_16">
      <!-- 100% -->
      <g transform="translate(18.001099 55.514532) scale(0.11 -0.11)">
       <use xlink:href="#DejaVuSans-14"/>
       <use xlink:href="#DejaVuSans-13" transform="translate(63.625 0)"/>
       <use xlink:href="#DejaVuSans-13" transform="translate(127.25 0)"/>
       <use xlink:href="#DejaVuSans-8" transform="translate(190.875 0)"/>
      </g>
     </g>
    </g>
    <g id="text_17">
     <!-- Maximaler kanonischer Transfer -->
     <g transform="translate(11.358521 243.305865) rotate(-90) scale(0.11 -0.11)">
      <defs>
       <path id="DejaVuSans-30" d="M 628 4666 
L 1569 4666 
L 2759 1491 
L 3956 4666 
L 4897 4666 
L 4897 0 
L 4281 0 
L 4281 4097 
L 3078 897 
L 2444 897 
L 1241 4097 
L 1241 0 
L 628 0 
L 628 4666 
z
" transform="scale(0.015625)"/>
       <path id="DejaVuSans-5b" d="M 3513 3500 
L 2247 1797 
L 3578 0 
L 2900 0 
L 1881 1375 
L 863 0 
L 184 0 
L 1544 1831 
L 300 3500 
L 978 3500 
L 1906 2253 
L 2834 3500 
L 3513 3500 
z
" transform="scale(0.015625)"/>
       <path id="DejaVuSans-4e" d="M 581 4863 
L 1159 4863 
L 1159 1991 
L 2875 3500 
L 3609 3500 
L 1753 1863 
L 3688 0 
L 2938 0 
L 1159 1709 
L 1159 0 
L 581 0 
L 581 4863 
z
" transform="scale(0.015625)"/>
       <path id="DejaVuSans-52" d="M 1959 3097 
Q 1497 3097 1228 2736 
Q 959 2375 959 1747 
Q 959 1119 1226 758 
Q 1494 397 1959 397 
Q 2419 397 2687 759 
Q 2956 1122 2956 1747 
Q 2956 2369 2687 2733 
Q 2419 3097 1959 3097 
z
M 1959 3584 
Q 2709 3584 3137 3096 
Q 3566 2609 3566 1747 
Q 3566 888 3137 398 
Q 2709 -91 1959 -91 
Q 1206 -91 779 398 
Q 353 888 353 1747 
Q 353 2609 779 3096 
Q 1206 3584 1959 3584 
z
" transform="scale(0.015625)"/>
       <path id="DejaVuSans-56" d="M 2834 3397 
L 2834 2853 
Q 2591 2978 2328 3040 
Q 2066 3103 1784 3103 
Q 1356 3103 1142 2972 
Q 928 2841 928 2578 
Q 928 2378 1081 2264 
Q 1234 2150 1697 2047 
L 1894 2003 
Q 2506 1872 2764 1633 
Q 3022 1394 3022 966 
Q 3022 478 2636 193 
Q 2250 -91 1575 -91 
Q 1294 -91 989 -36 
Q 684 19 347 128 
L 347 722 
Q 666 556 975 473 
Q 1284 391 1588 391 
Q 1994 391 2212 530 
Q 2431 669 2431 922 
Q 2431 1156 2273 1281 
Q 2116 1406 1581 1522 
L 1381 1569 
Q 847 1681 609 1914 
Q 372 2147 372 2553 
Q 372 3047 722 3315 
Q 1072 3584 1716 3584 
Q 2034 3584 2315 3537 
Q 2597 3491 2834 3397 
z
" transform="scale(0.015625)"/>
      </defs>
      <use xlink:href="#DejaVuSans-30"/>
      <use xlink:href="#DejaVuSans-44" transform="translate(86.28125 0)"/>
      <use xlink:href="#DejaVuSans-5b" transform="translate(147.5625 0)"/>
      <use xlink:href="#DejaVuSans-4c" transform="translate(206.75 0)"/>
      <use xlink:href="#DejaVuSans-50" transform="translate(234.53125 0)"/>
      <use xlink:href="#DejaVuSans-44" transform="translate(331.9375 0)"/>
      <use xlink:href="#DejaVuSans-4f" transform="translate(393.21875 0)"/>
      <use xlink:href="#DejaVuSans-48" transform="translate(421 0)"/>
      <use xlink:href="#DejaVuSans-55" transform="translate(482.53125 0)"/>
      <use xlink:href="#DejaVuSans-3" transform="translate(523.640625 0)"/>
      <use xlink:href="#DejaVuSans-4e" transform="translate(555.421875 0)"/>
      <use xlink:href="#DejaVuSans-44" transform="translate(611.578125 0)"/>
      <use xlink:href="#DejaVuSans-51" transform="translate(672.859375 0)"/>
      <use xlink:href="#DejaVuSans-52" transform="translate(736.234375 0)"/>
      <use xlink:href="#DejaVuSans-51" transform="translate(797.421875 0)"/>
      <use xlink:href="#DejaVuSans-4c" transform="translate(860.796875 0)"/>
      <use xlink:href="#DejaVuSans-56" transform="translate(888.578125 0)"/>
      <use xlink:href="#DejaVuSans-46" transform="translate(940.671875 0)"/>
      <use xlink:href="#DejaVuSans-4b" transform="translate(995.65625 0)"/>
      <use xlink:href="#DejaVuSans-48" transform="translate(1059.03125 0)"/>
      <use xlink:href="#DejaVuSans-55" transform="translate(1120.5625 0)"/>
      <use xlink:href="#DejaVuSans-3" transform="translate(1161.671875 0)"/>
      <use xlink:href="#DejaVuSans-37" transform="translate(1193.453125 0)"/>
      <use xlink:href="#DejaVuSans-55" transform="translate(1239.828125 0)"/>
      <use xlink:href="#DejaVuSans-44" transform="translate(1280.9375 0)"/>
      <use xlink:href="#DejaVuSans-51" transform="translate(1342.21875 0)"/>
      <use xlink:href="#DejaVuSans-56" transform="translate(1405.59375 0)"/>
      <use xlink:href="#DejaVuSans-49" transform="translate(1457.6875 0)"/>
      <use xlink:href="#DejaVuSans-48" transform="translate(1492.890625 0)"/>
      <use xlink:href="#DejaVuSans-55" transform="translate(1554.421875 0)"/>
     </g>
    </g>
   </g>
   <g id="line2d_16">
    <path d="M 73.323201 81.876713 
L 115.508535 55.262393 
L 157.693868 55.290459 
L 199.879201 82.89769 
L 242.064534 121.957028 
L 284.249867 158.077144 
L 326.4352 186.274971 
L 368.620534 206.93489 
L 410.805867 221.84393 
" clip-path="url(#p537d839162)" style="fill: none; stroke: #216b91; stroke-width: 1.5; stroke-linecap: square"/>
    <defs>
     <path id="m3de3e394ed" d="M 0 3 
C 0.795609 3 1.55874 2.683901 2.12132 2.12132 
C 2.683901 1.55874 3 0.795609 3 0 
C 3 -0.795609 2.683901 -1.55874 2.12132 -2.12132 
C 1.55874 -2.683901 0.795609 -3 0 -3 
C -0.795609 -3 -1.55874 -2.683901 -2.12132 -2.12132 
C -2.683901 -1.55874 -3 -0.795609 -3 0 
C -3 0.795609 -2.683901 1.55874 -2.12132 2.12132 
C -1.55874 2.683901 -0.795609 3 0 3 
z
" style="stroke: #216b91"/>
    </defs>
    <g clip-path="url(#p537d839162)">
     <use xlink:href="#m3de3e394ed" x="73.323201" y="81.876713" style="fill: #216b91; stroke: #216b91"/>
     <use xlink:href="#m3de3e394ed" x="115.508535" y="55.262393" style="fill: #216b91; stroke: #216b91"/>
     <use xlink:href="#m3de3e394ed" x="157.693868" y="55.290459" style="fill: #216b91; stroke: #216b91"/>
     <use xlink:href="#m3de3e394ed" x="199.879201" y="82.89769" style="fill: #216b91; stroke: #216b91"/>
     <use xlink:href="#m3de3e394ed" x="242.064534" y="121.957028" style="fill: #216b91; stroke: #216b91"/>
     <use xlink:href="#m3de3e394ed" x="284.249867" y="158.077144" style="fill: #216b91; stroke: #216b91"/>
     <use xlink:href="#m3de3e394ed" x="326.4352" y="186.274971" style="fill: #216b91; stroke: #216b91"/>
     <use xlink:href="#m3de3e394ed" x="368.620534" y="206.93489" style="fill: #216b91; stroke: #216b91"/>
     <use xlink:href="#m3de3e394ed" x="410.805867" y="221.84393" style="fill: #216b91; stroke: #216b91"/>
    </g>
   </g>
   <g id="line2d_17">
    <path d="M 242.064534 273.071619 
L 242.064534 38.031673 
" clip-path="url(#p537d839162)" style="fill: none; stroke-dasharray: 1,1.65; stroke-dashoffset: 0; stroke: #777777"/>
   </g>
   <g id="patch_3">
    <path d="M 56.449068 273.071619 
L 56.449068 38.031673 
" style="fill: none; stroke: #000000; stroke-width: 0.8; stroke-linejoin: miter; stroke-linecap: square"/>
   </g>
   <g id="patch_4">
    <path d="M 56.449068 273.071619 
L 427.68 273.071619 
" style="fill: none; stroke: #000000; stroke-width: 0.8; stroke-linejoin: miter; stroke-linecap: square"/>
   </g>
   <g id="text_18">
    <!-- Frequenzabgleich steigert den Transfer -->
    <g transform="translate(113.339784 32.031673) scale(0.132 -0.132)">
     <defs>
      <path id="DejaVuSans-29" d="M 628 4666 
L 3309 4666 
L 3309 4134 
L 1259 4134 
L 1259 2759 
L 3109 2759 
L 3109 2228 
L 1259 2228 
L 1259 0 
L 628 0 
L 628 4666 
z
" transform="scale(0.015625)"/>
      <path id="DejaVuSans-54" d="M 947 1747 
Q 947 1113 1208 752 
Q 1469 391 1925 391 
Q 2381 391 2643 752 
Q 2906 1113 2906 1747 
Q 2906 2381 2643 2742 
Q 2381 3103 1925 3103 
Q 1469 3103 1208 2742 
Q 947 2381 947 1747 
z
M 2906 525 
Q 2725 213 2448 61 
Q 2172 -91 1784 -91 
Q 1150 -91 751 415 
Q 353 922 353 1747 
Q 353 2572 751 3078 
Q 1150 3584 1784 3584 
Q 2172 3584 2448 3432 
Q 2725 3281 2906 2969 
L 2906 3500 
L 3481 3500 
L 3481 -1331 
L 2906 -1331 
L 2906 525 
z
" transform="scale(0.015625)"/>
      <path id="DejaVuSans-5d" d="M 353 3500 
L 3084 3500 
L 3084 2975 
L 922 459 
L 3084 459 
L 3084 0 
L 275 0 
L 275 525 
L 2438 3041 
L 353 3041 
L 353 3500 
z
" transform="scale(0.015625)"/>
      <path id="DejaVuSans-45" d="M 3116 1747 
Q 3116 2381 2855 2742 
Q 2594 3103 2138 3103 
Q 1681 3103 1420 2742 
Q 1159 2381 1159 1747 
Q 1159 1113 1420 752 
Q 1681 391 2138 391 
Q 2594 391 2855 752 
Q 3116 1113 3116 1747 
z
M 1159 2969 
Q 1341 3281 1617 3432 
Q 1894 3584 2278 3584 
Q 2916 3584 3314 3078 
Q 3713 2572 3713 1747 
Q 3713 922 3314 415 
Q 2916 -91 2278 -91 
Q 1894 -91 1617 61 
Q 1341 213 1159 525 
L 1159 0 
L 581 0 
L 581 4863 
L 1159 4863 
L 1159 2969 
z
" transform="scale(0.015625)"/>
      <path id="DejaVuSans-4a" d="M 2906 1791 
Q 2906 2416 2648 2759 
Q 2391 3103 1925 3103 
Q 1463 3103 1205 2759 
Q 947 2416 947 1791 
Q 947 1169 1205 825 
Q 1463 481 1925 481 
Q 2391 481 2648 825 
Q 2906 1169 2906 1791 
z
M 3481 434 
Q 3481 -459 3084 -895 
Q 2688 -1331 1869 -1331 
Q 1566 -1331 1297 -1286 
Q 1028 -1241 775 -1147 
L 775 -588 
Q 1028 -725 1275 -790 
Q 1522 -856 1778 -856 
Q 2344 -856 2625 -561 
Q 2906 -266 2906 331 
L 2906 616 
Q 2728 306 2450 153 
Q 2172 0 1784 0 
Q 1141 0 747 490 
Q 353 981 353 1791 
Q 353 2603 747 3093 
Q 1141 3584 1784 3584 
Q 2172 3584 2450 3431 
Q 2728 3278 2906 2969 
L 2906 3500 
L 3481 3500 
L 3481 434 
z
" transform="scale(0.015625)"/>
      <path id="DejaVuSans-57" d="M 1172 4494 
L 1172 3500 
L 2356 3500 
L 2356 3053 
L 1172 3053 
L 1172 1153 
Q 1172 725 1289 603 
Q 1406 481 1766 481 
L 2356 481 
L 2356 0 
L 1766 0 
Q 1100 0 847 248 
Q 594 497 594 1153 
L 594 3053 
L 172 3053 
L 172 3500 
L 594 3500 
L 594 4494 
L 1172 4494 
z
" transform="scale(0.015625)"/>
     </defs>
     <use xlink:href="#DejaVuSans-29"/>
     <use xlink:href="#DejaVuSans-55" transform="translate(50.234375 0)"/>
     <use xlink:href="#DejaVuSans-48" transform="translate(89.140625 0)"/>
     <use xlink:href="#DejaVuSans-54" transform="translate(150.671875 0)"/>
     <use xlink:href="#DejaVuSans-58" transform="translate(214.15625 0)"/>
     <use xlink:href="#DejaVuSans-48" transform="translate(277.53125 0)"/>
     <use xlink:href="#DejaVuSans-51" transform="translate(339.0625 0)"/>
     <use xlink:href="#DejaVuSans-5d" transform="translate(402.4375 0)"/>
     <use xlink:href="#DejaVuSans-44" transform="translate(454.921875 0)"/>
     <use xlink:href="#DejaVuSans-45" transform="translate(516.203125 0)"/>
     <use xlink:href="#DejaVuSans-4a" transform="translate(579.6875 0)"/>
     <use xlink:href="#DejaVuSans-4f" transform="translate(643.171875 0)"/>
     <use xlink:href="#DejaVuSans-48" transform="translate(670.953125 0)"/>
     <use xlink:href="#DejaVuSans-4c" transform="translate(732.484375 0)"/>
     <use xlink:href="#DejaVuSans-46" transform="translate(760.265625 0)"/>
     <use xlink:href="#DejaVuSans-4b" transform="translate(815.25 0)"/>
     <use xlink:href="#DejaVuSans-3" transform="translate(878.625 0)"/>
     <use xlink:href="#DejaVuSans-56" transform="translate(910.40625 0)"/>
     <use xlink:href="#DejaVuSans-57" transform="translate(962.5 0)"/>
     <use xlink:href="#DejaVuSans-48" transform="translate(1001.703125 0)"/>
     <use xlink:href="#DejaVuSans-4c" transform="translate(1063.234375 0)"/>
     <use xlink:href="#DejaVuSans-4a" transform="translate(1091.015625 0)"/>
     <use xlink:href="#DejaVuSans-48" transform="translate(1154.5 0)"/>
     <use xlink:href="#DejaVuSans-55" transform="translate(1216.03125 0)"/>
     <use xlink:href="#DejaVuSans-57" transform="translate(1257.140625 0)"/>
     <use xlink:href="#DejaVuSans-3" transform="translate(1296.34375 0)"/>
     <use xlink:href="#DejaVuSans-47" transform="translate(1328.125 0)"/>
     <use xlink:href="#DejaVuSans-48" transform="translate(1391.609375 0)"/>
     <use xlink:href="#DejaVuSans-51" transform="translate(1453.140625 0)"/>
     <use xlink:href="#DejaVuSans-3" transform="translate(1516.515625 0)"/>
     <use xlink:href="#DejaVuSans-37" transform="translate(1548.296875 0)"/>
     <use xlink:href="#DejaVuSans-55" transform="translate(1594.671875 0)"/>
     <use xlink:href="#DejaVuSans-44" transform="translate(1635.78125 0)"/>
     <use xlink:href="#DejaVuSans-51" transform="translate(1697.0625 0)"/>
     <use xlink:href="#DejaVuSans-56" transform="translate(1760.4375 0)"/>
     <use xlink:href="#DejaVuSans-49" transform="translate(1812.53125 0)"/>
     <use xlink:href="#DejaVuSans-48" transform="translate(1847.734375 0)"/>
     <use xlink:href="#DejaVuSans-55" transform="translate(1909.265625 0)"/>
    </g>
   </g>
   <g id="PathCollection_1">
    <defs>
     <path id="m4f9ec71057" d="M 0 -4.1833 
L -0.939209 -1.292711 
L -3.978555 -1.292711 
L -1.519673 0.493772 
L -2.458882 3.384361 
L -0 1.597878 
L 2.458882 3.384361 
L 1.519673 0.493772 
L 3.978555 -1.292711 
L 0.939209 -1.292711 
z
" style="stroke: #d47d1f"/>
    </defs>
    <g clip-path="url(#p537d839162)">
     <use xlink:href="#m4f9ec71057" x="136.626134" y="51.335821" style="fill: #d47d1f; stroke: #d47d1f"/>
    </g>
   </g>
   <g id="legend_1">
    <g id="patch_5">
     <path d="M 172.597893 358.981813 
L 311.531175 358.981813 
Q 313.331175 358.981813 313.331175 357.181813 
L 313.331175 331.080407 
Q 313.331175 329.280407 311.531175 329.280407 
L 172.597893 329.280407 
Q 170.797893 329.280407 170.797893 331.080407 
L 170.797893 357.181813 
Q 170.797893 358.981813 172.597893 358.981813 
z
" style="fill: #ffffff; opacity: 0.8; stroke: #cccccc; stroke-linejoin: miter"/>
    </g>
    <g id="line2d_18">
     <path d="M 174.397893 336.569001 
L 183.397893 336.569001 
L 192.397893 336.569001 
" style="fill: none; stroke: #216b91; stroke-width: 1.5; stroke-linecap: square"/>
     <g>
      <use xlink:href="#m3de3e394ed" x="183.397893" y="336.569001" style="fill: #216b91; stroke: #216b91"/>
     </g>
    </g>
    <g id="text_19">
     <!-- Vorgegebenes Raster -->
     <g transform="translate(199.597893 339.719001) scale(0.09 -0.09)">
      <defs>
       <path id="DejaVuSans-39" d="M 1831 0 
L 50 4666 
L 709 4666 
L 2188 738 
L 3669 4666 
L 4325 4666 
L 2547 0 
L 1831 0 
z
" transform="scale(0.015625)"/>
       <path id="DejaVuSans-35" d="M 2841 2188 
Q 3044 2119 3236 1894 
Q 3428 1669 3622 1275 
L 4263 0 
L 3584 0 
L 2988 1197 
Q 2756 1666 2539 1819 
Q 2322 1972 1947 1972 
L 1259 1972 
L 1259 0 
L 628 0 
L 628 4666 
L 2053 4666 
Q 2853 4666 3247 4331 
Q 3641 3997 3641 3322 
Q 3641 2881 3436 2590 
Q 3231 2300 2841 2188 
z
M 1259 4147 
L 1259 2491 
L 2053 2491 
Q 2509 2491 2742 2702 
Q 2975 2913 2975 3322 
Q 2975 3731 2742 3939 
Q 2509 4147 2053 4147 
L 1259 4147 
z
" transform="scale(0.015625)"/>
      </defs>
      <use xlink:href="#DejaVuSans-39"/>
      <use xlink:href="#DejaVuSans-52" transform="translate(60.640625 0)"/>
      <use xlink:href="#DejaVuSans-55" transform="translate(121.828125 0)"/>
      <use xlink:href="#DejaVuSans-4a" transform="translate(161.1875 0)"/>
      <use xlink:href="#DejaVuSans-48" transform="translate(224.671875 0)"/>
      <use xlink:href="#DejaVuSans-4a" transform="translate(286.203125 0)"/>
      <use xlink:href="#DejaVuSans-48" transform="translate(349.6875 0)"/>
      <use xlink:href="#DejaVuSans-45" transform="translate(411.21875 0)"/>
      <use xlink:href="#DejaVuSans-48" transform="translate(474.703125 0)"/>
      <use xlink:href="#DejaVuSans-51" transform="translate(536.234375 0)"/>
      <use xlink:href="#DejaVuSans-48" transform="translate(599.609375 0)"/>
      <use xlink:href="#DejaVuSans-56" transform="translate(661.140625 0)"/>
      <use xlink:href="#DejaVuSans-3" transform="translate(713.234375 0)"/>
      <use xlink:href="#DejaVuSans-35" transform="translate(745.015625 0)"/>
      <use xlink:href="#DejaVuSans-44" transform="translate(812.296875 0)"/>
      <use xlink:href="#DejaVuSans-56" transform="translate(873.578125 0)"/>
      <use xlink:href="#DejaVuSans-57" transform="translate(925.671875 0)"/>
      <use xlink:href="#DejaVuSans-48" transform="translate(964.875 0)"/>
      <use xlink:href="#DejaVuSans-55" transform="translate(1026.40625 0)"/>
     </g>
    </g>
    <g id="PathCollection_2">
     <g>
      <use xlink:href="#m4f9ec71057" x="183.397893" y="350.857204" style="fill: #d47d1f; stroke: #d47d1f"/>
     </g>
    </g>
    <g id="text_20">
     <!-- Frequenzen abgeglichen -->
     <g transform="translate(199.597893 353.219704) scale(0.09 -0.09)">
      <use xlink:href="#DejaVuSans-29"/>
      <use xlink:href="#DejaVuSans-55" transform="translate(50.234375 0)"/>
      <use xlink:href="#DejaVuSans-48" transform="translate(89.140625 0)"/>
      <use xlink:href="#DejaVuSans-54" transform="translate(150.671875 0)"/>
      <use xlink:href="#DejaVuSans-58" transform="translate(214.15625 0)"/>
      <use xlink:href="#DejaVuSans-48" transform="translate(277.53125 0)"/>
      <use xlink:href="#DejaVuSans-51" transform="translate(339.0625 0)"/>
      <use xlink:href="#DejaVuSans-5d" transform="translate(402.4375 0)"/>
      <use xlink:href="#DejaVuSans-48" transform="translate(454.921875 0)"/>
      <use xlink:href="#DejaVuSans-51" transform="translate(516.453125 0)"/>
      <use xlink:href="#DejaVuSans-3" transform="translate(579.828125 0)"/>
      <use xlink:href="#DejaVuSans-44" transform="translate(611.609375 0)"/>
      <use xlink:href="#DejaVuSans-45" transform="translate(672.890625 0)"/>
      <use xlink:href="#DejaVuSans-4a" transform="translate(736.375 0)"/>
      <use xlink:href="#DejaVuSans-48" transform="translate(799.859375 0)"/>
      <use xlink:href="#DejaVuSans-4a" transform="translate(861.390625 0)"/>
      <use xlink:href="#DejaVuSans-4f" transform="translate(924.875 0)"/>
      <use xlink:href="#DejaVuSans-4c" transform="translate(952.65625 0)"/>
      <use xlink:href="#DejaVuSans-46" transform="translate(980.4375 0)"/>
      <use xlink:href="#DejaVuSans-4b" transform="translate(1035.421875 0)"/>
      <use xlink:href="#DejaVuSans-48" transform="translate(1098.796875 0)"/>
      <use xlink:href="#DejaVuSans-51" transform="translate(1160.328125 0)"/>
     </g>
    </g>
   </g>
  </g>
  <g id="axes_2">
   <g id="patch_6">
    <path d="M 489.768828 273.071619 
L 860.99976 273.071619 
L 860.99976 38.031673 
L 489.768828 38.031673 
z
" style="fill: #ffffff"/>
   </g>
   <g id="matplotlib.axis_3">
    <g id="xtick_10">
     <g id="line2d_19">
      <g>
       <use xlink:href="#m4e8ed240d4" x="506.642961" y="273.071619" style="stroke: #000000; stroke-width: 0.8"/>
      </g>
     </g>
     <g id="text_21">
      <!-- 0 -->
      <g transform="translate(503.143586 288.429041) scale(0.11 -0.11)">
       <use xlink:href="#DejaVuSans-13"/>
      </g>
     </g>
    </g>
    <g id="xtick_11">
     <g id="line2d_20">
      <g>
       <use xlink:href="#m4e8ed240d4" x="557.976592" y="273.071619" style="stroke: #000000; stroke-width: 0.8"/>
      </g>
     </g>
     <g id="text_22">
      <!-- 100 -->
      <g transform="translate(547.478467 288.429041) scale(0.11 -0.11)">
       <use xlink:href="#DejaVuSans-14"/>
       <use xlink:href="#DejaVuSans-13" transform="translate(63.625 0)"/>
       <use xlink:href="#DejaVuSans-13" transform="translate(127.25 0)"/>
      </g>
     </g>
    </g>
    <g id="xtick_12">
     <g id="line2d_21">
      <g>
       <use xlink:href="#m4e8ed240d4" x="609.310223" y="273.071619" style="stroke: #000000; stroke-width: 0.8"/>
      </g>
     </g>
     <g id="text_23">
      <!-- 200 -->
      <g transform="translate(598.812098 288.429041) scale(0.11 -0.11)">
       <use xlink:href="#DejaVuSans-15"/>
       <use xlink:href="#DejaVuSans-13" transform="translate(63.625 0)"/>
       <use xlink:href="#DejaVuSans-13" transform="translate(127.25 0)"/>
      </g>
     </g>
    </g>
    <g id="xtick_13">
     <g id="line2d_22">
      <g>
       <use xlink:href="#m4e8ed240d4" x="660.643854" y="273.071619" style="stroke: #000000; stroke-width: 0.8"/>
      </g>
     </g>
     <g id="text_24">
      <!-- 300 -->
      <g transform="translate(650.145729 288.429041) scale(0.11 -0.11)">
       <use xlink:href="#DejaVuSans-16"/>
       <use xlink:href="#DejaVuSans-13" transform="translate(63.625 0)"/>
       <use xlink:href="#DejaVuSans-13" transform="translate(127.25 0)"/>
      </g>
     </g>
    </g>
    <g id="xtick_14">
     <g id="line2d_23">
      <g>
       <use xlink:href="#m4e8ed240d4" x="711.977484" y="273.071619" style="stroke: #000000; stroke-width: 0.8"/>
      </g>
     </g>
     <g id="text_25">
      <!-- 400 -->
      <g transform="translate(701.479359 288.429041) scale(0.11 -0.11)">
       <use xlink:href="#DejaVuSans-17"/>
       <use xlink:href="#DejaVuSans-13" transform="translate(63.625 0)"/>
       <use xlink:href="#DejaVuSans-13" transform="translate(127.25 0)"/>
      </g>
     </g>
    </g>
    <g id="xtick_15">
     <g id="line2d_24">
      <g>
       <use xlink:href="#m4e8ed240d4" x="763.311115" y="273.071619" style="stroke: #000000; stroke-width: 0.8"/>
      </g>
     </g>
     <g id="text_26">
      <!-- 500 -->
      <g transform="translate(752.81299 288.429041) scale(0.11 -0.11)">
       <use xlink:href="#DejaVuSans-18"/>
       <use xlink:href="#DejaVuSans-13" transform="translate(63.625 0)"/>
       <use xlink:href="#DejaVuSans-13" transform="translate(127.25 0)"/>
      </g>
     </g>
    </g>
    <g id="xtick_16">
     <g id="line2d_25">
      <g>
       <use xlink:href="#m4e8ed240d4" x="814.644746" y="273.071619" style="stroke: #000000; stroke-width: 0.8"/>
      </g>
     </g>
     <g id="text_27">
      <!-- 600 -->
      <g transform="translate(804.146621 288.429041) scale(0.11 -0.11)">
       <use xlink:href="#DejaVuSans-19"/>
       <use xlink:href="#DejaVuSans-13" transform="translate(63.625 0)"/>
       <use xlink:href="#DejaVuSans-13" transform="translate(127.25 0)"/>
      </g>
     </g>
    </g>
    <g id="text_28">
     <!-- Zeit (Modelleinheiten) -->
     <g transform="translate(614.644528 303.4299) scale(0.11 -0.11)">
      <defs>
       <path id="DejaVuSans-3d" d="M 359 4666 
L 4025 4666 
L 4025 4184 
L 1075 531 
L 4097 531 
L 4097 0 
L 288 0 
L 288 481 
L 3238 4134 
L 359 4134 
L 359 4666 
z
" transform="scale(0.015625)"/>
       <path id="DejaVuSans-b" d="M 1984 4856 
Q 1566 4138 1362 3434 
Q 1159 2731 1159 2009 
Q 1159 1288 1364 580 
Q 1569 -128 1984 -844 
L 1484 -844 
Q 1016 -109 783 600 
Q 550 1309 550 2009 
Q 550 2706 781 3412 
Q 1013 4119 1484 4856 
L 1984 4856 
z
" transform="scale(0.015625)"/>
       <path id="DejaVuSans-c" d="M 513 4856 
L 1013 4856 
Q 1481 4119 1714 3412 
Q 1947 2706 1947 2009 
Q 1947 1309 1714 600 
Q 1481 -109 1013 -844 
L 513 -844 
Q 928 -128 1133 580 
Q 1338 1288 1338 2009 
Q 1338 2731 1133 3434 
Q 928 4138 513 4856 
z
" transform="scale(0.015625)"/>
      </defs>
      <use xlink:href="#DejaVuSans-3d"/>
      <use xlink:href="#DejaVuSans-48" transform="translate(68.5 0)"/>
      <use xlink:href="#DejaVuSans-4c" transform="translate(130.03125 0)"/>
      <use xlink:href="#DejaVuSans-57" transform="translate(157.8125 0)"/>
      <use xlink:href="#DejaVuSans-3" transform="translate(197.015625 0)"/>
      <use xlink:href="#DejaVuSans-b" transform="translate(228.796875 0)"/>
      <use xlink:href="#DejaVuSans-30" transform="translate(267.8125 0)"/>
      <use xlink:href="#DejaVuSans-52" transform="translate(354.09375 0)"/>
      <use xlink:href="#DejaVuSans-47" transform="translate(415.28125 0)"/>
      <use xlink:href="#DejaVuSans-48" transform="translate(478.765625 0)"/>
      <use xlink:href="#DejaVuSans-4f" transform="translate(540.296875 0)"/>
      <use xlink:href="#DejaVuSans-4f" transform="translate(568.078125 0)"/>
      <use xlink:href="#DejaVuSans-48" transform="translate(595.859375 0)"/>
      <use xlink:href="#DejaVuSans-4c" transform="translate(657.390625 0)"/>
      <use xlink:href="#DejaVuSans-51" transform="translate(685.171875 0)"/>
      <use xlink:href="#DejaVuSans-4b" transform="translate(748.546875 0)"/>
      <use xlink:href="#DejaVuSans-48" transform="translate(811.921875 0)"/>
      <use xlink:href="#DejaVuSans-4c" transform="translate(873.453125 0)"/>
      <use xlink:href="#DejaVuSans-57" transform="translate(901.234375 0)"/>
      <use xlink:href="#DejaVuSans-48" transform="translate(940.4375 0)"/>
      <use xlink:href="#DejaVuSans-51" transform="translate(1001.96875 0)"/>
      <use xlink:href="#DejaVuSans-c" transform="translate(1065.34375 0)"/>
     </g>
    </g>
   </g>
   <g id="matplotlib.axis_4">
    <g id="ytick_7">
     <g id="line2d_26">
      <g>
       <use xlink:href="#ma0390336d9" x="489.768828" y="273.071619" style="stroke: #000000; stroke-width: 0.8"/>
      </g>
     </g>
     <g id="text_29">
      <!-- 0% -->
      <g transform="translate(465.318359 277.25033) scale(0.11 -0.11)">
       <use xlink:href="#DejaVuSans-13"/>
       <use xlink:href="#DejaVuSans-8" transform="translate(63.625 0)"/>
      </g>
     </g>
    </g>
    <g id="ytick_8">
     <g id="line2d_27">
      <g>
       <use xlink:href="#ma0390336d9" x="489.768828" y="228.724459" style="stroke: #000000; stroke-width: 0.8"/>
      </g>
     </g>
     <g id="text_30">
      <!-- 20% -->
      <g transform="translate(458.319609 232.90317) scale(0.11 -0.11)">
       <use xlink:href="#DejaVuSans-15"/>
       <use xlink:href="#DejaVuSans-13" transform="translate(63.625 0)"/>
       <use xlink:href="#DejaVuSans-8" transform="translate(127.25 0)"/>
      </g>
     </g>
    </g>
    <g id="ytick_9">
     <g id="line2d_28">
      <g>
       <use xlink:href="#ma0390336d9" x="489.768828" y="184.3773" style="stroke: #000000; stroke-width: 0.8"/>
      </g>
     </g>
     <g id="text_31">
      <!-- 40% -->
      <g transform="translate(458.319609 188.556011) scale(0.11 -0.11)">
       <use xlink:href="#DejaVuSans-17"/>
       <use xlink:href="#DejaVuSans-13" transform="translate(63.625 0)"/>
       <use xlink:href="#DejaVuSans-8" transform="translate(127.25 0)"/>
      </g>
     </g>
    </g>
    <g id="ytick_10">
     <g id="line2d_29">
      <g>
       <use xlink:href="#ma0390336d9" x="489.768828" y="140.03014" style="stroke: #000000; stroke-width: 0.8"/>
      </g>
     </g>
     <g id="text_32">
      <!-- 60% -->
      <g transform="translate(458.319609 144.208851) scale(0.11 -0.11)">
       <use xlink:href="#DejaVuSans-19"/>
       <use xlink:href="#DejaVuSans-13" transform="translate(63.625 0)"/>
       <use xlink:href="#DejaVuSans-8" transform="translate(127.25 0)"/>
      </g>
     </g>
    </g>
    <g id="ytick_11">
     <g id="line2d_30">
      <g>
       <use xlink:href="#ma0390336d9" x="489.768828" y="95.682981" style="stroke: #000000; stroke-width: 0.8"/>
      </g>
     </g>
     <g id="text_33">
      <!-- 80% -->
      <g transform="translate(458.319609 99.861692) scale(0.11 -0.11)">
       <use xlink:href="#DejaVuSans-1b"/>
       <use xlink:href="#DejaVuSans-13" transform="translate(63.625 0)"/>
       <use xlink:href="#DejaVuSans-8" transform="translate(127.25 0)"/>
      </g>
     </g>
    </g>
    <g id="ytick_12">
     <g id="line2d_31">
      <g>
       <use xlink:href="#ma0390336d9" x="489.768828" y="51.335821" style="stroke: #000000; stroke-width: 0.8"/>
      </g>
     </g>
     <g id="text_34">
      <!-- 100% -->
      <g transform="translate(451.320859 55.514532) scale(0.11 -0.11)">
       <use xlink:href="#DejaVuSans-14"/>
       <use xlink:href="#DejaVuSans-13" transform="translate(63.625 0)"/>
       <use xlink:href="#DejaVuSans-13" transform="translate(127.25 0)"/>
       <use xlink:href="#DejaVuSans-8" transform="translate(190.875 0)"/>
      </g>
     </g>
    </g>
    <g id="text_35">
     <!-- Anteil außen / äußere Modenkombination -->
     <g transform="translate(444.678281 269.253834) rotate(-90) scale(0.11 -0.11)">
      <defs>
       <path id="DejaVuSans-24" d="M 2188 4044 
L 1331 1722 
L 3047 1722 
L 2188 4044 
z
M 1831 4666 
L 2547 4666 
L 4325 0 
L 3669 0 
L 3244 1197 
L 1141 1197 
L 716 0 
L 50 0 
L 1831 4666 
z
" transform="scale(0.015625)"/>
       <path id="DejaVuSans-12" d="M 1625 4666 
L 2156 4666 
L 531 -594 
L 0 -594 
L 1625 4666 
z
" transform="scale(0.015625)"/>
      </defs>
      <use xlink:href="#DejaVuSans-24"/>
      <use xlink:href="#DejaVuSans-51" transform="translate(68.40625 0)"/>
      <use xlink:href="#DejaVuSans-57" transform="translate(131.78125 0)"/>
      <use xlink:href="#DejaVuSans-48" transform="translate(170.984375 0)"/>
      <use xlink:href="#DejaVuSans-4c" transform="translate(232.515625 0)"/>
      <use xlink:href="#DejaVuSans-4f" transform="translate(260.296875 0)"/>
      <use xlink:href="#DejaVuSans-3" transform="translate(288.078125 0)"/>
      <use xlink:href="#DejaVuSans-44" transform="translate(319.859375 0)"/>
      <use xlink:href="#DejaVuSans-58" transform="translate(381.140625 0)"/>
      <use xlink:href="#DejaVuSans-a1" transform="translate(444.515625 0)"/>
      <use xlink:href="#DejaVuSans-48" transform="translate(507.5 0)"/>
      <use xlink:href="#DejaVuSans-51" transform="translate(569.03125 0)"/>
      <use xlink:href="#DejaVuSans-3" transform="translate(632.40625 0)"/>
      <use xlink:href="#DejaVuSans-12" transform="translate(664.1875 0)"/>
      <use xlink:href="#DejaVuSans-3" transform="translate(697.875 0)"/>
      <use xlink:href="#DejaVuSans-a6" transform="translate(729.65625 0)"/>
      <use xlink:href="#DejaVuSans-58" transform="translate(790.9375 0)"/>
      <use xlink:href="#DejaVuSans-a1" transform="translate(854.3125 0)"/>
      <use xlink:href="#DejaVuSans-48" transform="translate(917.296875 0)"/>
      <use xlink:href="#DejaVuSans-55" transform="translate(978.828125 0)"/>
      <use xlink:href="#DejaVuSans-48" transform="translate(1017.734375 0)"/>
      <use xlink:href="#DejaVuSans-3" transform="translate(1079.265625 0)"/>
      <use xlink:href="#DejaVuSans-30" transform="translate(1111.046875 0)"/>
      <use xlink:href="#DejaVuSans-52" transform="translate(1197.328125 0)"/>
      <use xlink:href="#DejaVuSans-47" transform="translate(1258.515625 0)"/>
      <use xlink:href="#DejaVuSans-48" transform="translate(1322 0)"/>
      <use xlink:href="#DejaVuSans-51" transform="translate(1383.53125 0)"/>
      <use xlink:href="#DejaVuSans-4e" transform="translate(1446.90625 0)"/>
      <use xlink:href="#DejaVuSans-52" transform="translate(1501.25 0)"/>
      <use xlink:href="#DejaVuSans-50" transform="translate(1562.4375 0)"/>
      <use xlink:href="#DejaVuSans-45" transform="translate(1659.84375 0)"/>
      <use xlink:href="#DejaVuSans-4c" transform="translate(1723.328125 0)"/>
      <use xlink:href="#DejaVuSans-51" transform="translate(1751.109375 0)"/>
      <use xlink:href="#DejaVuSans-44" transform="translate(1814.484375 0)"/>
      <use xlink:href="#DejaVuSans-57" transform="translate(1875.765625 0)"/>
      <use xlink:href="#DejaVuSans-4c" transform="translate(1914.96875 0)"/>
      <use xlink:href="#DejaVuSans-52" transform="translate(1942.75 0)"/>
      <use xlink:href="#DejaVuSans-51" transform="translate(2003.9375 0)"/>
     </g>
    </g>
   </g>
   <g id="line2d_32">
    <path d="M 506.642961 273.071619 
L 509.183656 272.95084 
L 511.724351 272.588889 
L 514.265046 271.986924 
L 516.80574 271.146869 
L 519.346435 270.071409 
L 521.88713 268.763982 
L 524.710124 267.044335 
L 527.533118 265.050274 
L 530.356113 262.789669 
L 533.461406 260.005823 
L 536.5667 256.923568 
L 539.954293 253.238104 
L 543.624185 248.888888 
L 547.294078 244.197082 
L 551.24627 238.797164 
L 555.76306 232.23746 
L 560.84445 224.442084 
L 566.772738 214.919825 
L 574.959421 201.308056 
L 589.074392 177.802403 
L 595.284979 167.93939 
L 600.366368 160.281104 
L 604.883159 153.870186 
L 608.835351 148.620029 
L 612.505243 144.082588 
L 616.175136 139.901419 
L 619.562729 136.38225 
L 622.668022 133.461028 
L 625.773316 130.845647 
L 628.59631 128.743964 
L 631.419304 126.913676 
L 634.242299 125.362005 
L 636.782993 124.208804 
L 639.323688 123.289945 
L 641.864383 122.608364 
L 644.405078 122.166242 
L 646.945772 121.964992 
L 649.486467 122.005256 
L 652.027162 122.286907 
L 654.567857 122.809043 
L 657.108552 123.569996 
L 659.649246 124.567333 
L 662.189941 125.797865 
L 664.730636 127.257659 
L 667.55363 129.142839 
L 670.376624 131.297839 
L 673.481918 133.9698 
L 676.587211 136.945172 
L 679.974804 140.520341 
L 683.362397 144.419345 
L 687.03229 148.982967 
L 690.984482 154.258608 
L 695.218973 160.281104 
L 700.018063 167.503089 
L 705.664051 176.431019 
L 712.721537 188.041412 
L 733.047095 221.762101 
L 738.693083 230.540072 
L 743.492174 237.597032 
L 747.726665 243.446822 
L 751.678857 248.539758 
L 755.348749 252.916386 
L 758.736342 256.629063 
L 762.123935 260.005823 
L 765.229229 262.789669 
L 768.334522 265.261813 
L 771.157517 267.228769 
L 773.980511 268.920584 
L 776.521206 270.202429 
L 779.0619 271.251889 
L 781.602595 272.065609 
L 784.14329 272.640987 
L 786.683985 272.976183 
L 788.94238 273.071619 
L 788.94238 273.071619 
" clip-path="url(#p5a6e092924)" style="fill: none; stroke: #216b91; stroke-width: 1.5; stroke-linecap: square"/>
   </g>
   <g id="line2d_33">
    <path d="M 506.642961 273.071619 
L 509.00534 272.964403 
L 511.367719 272.64296 
L 513.730097 272.107914 
L 516.092476 271.360299 
L 518.454855 270.401561 
L 521.154716 269.049739 
L 523.854577 267.428016 
L 526.554439 265.540486 
L 529.2543 263.391919 
L 532.291644 260.669542 
L 535.328988 257.63238 
L 538.366332 254.290142 
L 541.741159 250.231767 
L 545.115985 245.825986 
L 548.828295 240.599163 
L 552.540604 234.998003 
L 556.590396 228.492189 
L 560.977671 221.02038 
L 565.702428 212.536693 
L 571.10215 202.368429 
L 577.176838 190.449615 
L 585.276422 174.023475 
L 606.53783 130.604233 
L 612.950001 118.172768 
L 618.349724 108.183322 
L 623.074481 99.886717 
L 627.461756 92.612898 
L 631.511548 86.309421 
L 635.223857 80.90924 
L 638.936166 75.89724 
L 642.310993 71.697902 
L 645.68582 67.85575 
L 648.723164 64.715768 
L 651.760507 61.887446 
L 654.797851 59.379824 
L 657.497713 57.426562 
L 660.197574 55.737977 
L 662.897435 54.318333 
L 665.597297 53.171216 
L 667.959675 52.393343 
L 670.322054 51.827857 
L 672.684433 51.475852 
L 675.046811 51.338009 
L 677.40919 51.414596 
L 679.771569 51.705463 
L 682.133947 52.210048 
L 684.496326 52.927375 
L 686.858705 53.856056 
L 689.558566 55.173886 
L 692.258427 56.762082 
L 694.958289 58.616633 
L 697.65815 60.732854 
L 700.695494 63.419699 
L 703.732838 66.422346 
L 706.770182 69.731196 
L 710.145009 73.753927 
L 713.519835 78.125728 
L 717.232145 83.317254 
L 720.944454 88.885463 
L 724.994246 95.358188 
L 729.381521 102.797729 
L 734.106278 111.251066 
L 739.506 121.390524 
L 745.580688 133.28477 
L 753.34279 148.999668 
L 776.291611 195.800604 
L 782.366299 207.509784 
L 787.766022 217.436456 
L 792.490779 225.668067 
L 796.878054 232.873579 
L 800.927846 239.107605 
L 804.640155 244.439072 
L 808.352464 249.377866 
L 811.727291 253.507049 
L 815.102118 257.275899 
L 818.139462 260.347456 
L 821.176805 263.105257 
L 824.214149 265.540486 
L 826.914011 267.428016 
L 829.613872 269.049739 
L 832.313733 270.401561 
L 835.013595 271.480065 
L 837.375973 272.197393 
L 839.738352 272.701977 
L 842.100731 272.992844 
L 844.125627 273.071619 
L 844.125627 273.071619 
" clip-path="url(#p5a6e092924)" style="fill: none; stroke: #d47d1f; stroke-width: 1.5; stroke-linecap: square"/>
   </g>
   <g id="patch_7">
    <path d="M 489.768828 273.071619 
L 489.768828 38.031673 
" style="fill: none; stroke: #000000; stroke-width: 0.8; stroke-linejoin: miter; stroke-linecap: square"/>
   </g>
   <g id="patch_8">
    <path d="M 489.768828 273.071619 
L 860.99976 273.071619 
" style="fill: none; stroke: #000000; stroke-width: 0.8; stroke-linejoin: miter; stroke-linecap: square"/>
   </g>
   <g id="text_36">
    <!-- Reversibler Austausch -->
    <g transform="translate(601.985075 32.031673) scale(0.132 -0.132)">
     <defs>
      <path id="DejaVuSans-59" d="M 191 3500 
L 800 3500 
L 1894 563 
L 2988 3500 
L 3597 3500 
L 2284 0 
L 1503 0 
L 191 3500 
z
" transform="scale(0.015625)"/>
     </defs>
     <use xlink:href="#DejaVuSans-35"/>
     <use xlink:href="#DejaVuSans-48" transform="translate(65 0)"/>
     <use xlink:href="#DejaVuSans-59" transform="translate(126.53125 0)"/>
     <use xlink:href="#DejaVuSans-48" transform="translate(185.71875 0)"/>
     <use xlink:href="#DejaVuSans-55" transform="translate(247.25 0)"/>
     <use xlink:href="#DejaVuSans-56" transform="translate(288.359375 0)"/>
     <use xlink:href="#DejaVuSans-4c" transform="translate(340.453125 0)"/>
     <use xlink:href="#DejaVuSans-45" transform="translate(368.234375 0)"/>
     <use xlink:href="#DejaVuSans-4f" transform="translate(431.71875 0)"/>
     <use xlink:href="#DejaVuSans-48" transform="translate(459.5 0)"/>
     <use xlink:href="#DejaVuSans-55" transform="translate(521.03125 0)"/>
     <use xlink:href="#DejaVuSans-3" transform="translate(562.140625 0)"/>
     <use xlink:href="#DejaVuSans-24" transform="translate(593.921875 0)"/>
     <use xlink:href="#DejaVuSans-58" transform="translate(662.328125 0)"/>
     <use xlink:href="#DejaVuSans-56" transform="translate(725.703125 0)"/>
     <use xlink:href="#DejaVuSans-57" transform="translate(777.796875 0)"/>
     <use xlink:href="#DejaVuSans-44" transform="translate(817 0)"/>
     <use xlink:href="#DejaVuSans-58" transform="translate(878.28125 0)"/>
     <use xlink:href="#DejaVuSans-56" transform="translate(941.65625 0)"/>
     <use xlink:href="#DejaVuSans-46" transform="translate(993.75 0)"/>
     <use xlink:href="#DejaVuSans-4b" transform="translate(1048.734375 0)"/>
    </g>
   </g>
   <g id="PathCollection_3">
    <defs>
     <path id="m4b0791bcbc" d="M -3 3 
L 3 -3 
M -3 -3 
L 3 3 
" style="stroke: #216b91; stroke-width: 1.5"/>
    </defs>
    <g clip-path="url(#p5a6e092924)">
     <use xlink:href="#m4b0791bcbc" x="506.642961" y="271.865728" style="fill: #216b91; stroke: #216b91; stroke-width: 1.5"/>
     <use xlink:href="#m4b0791bcbc" x="647.792671" y="122.436656" style="fill: #216b91; stroke: #216b91; stroke-width: 1.5"/>
     <use xlink:href="#m4b0791bcbc" x="788.94238" y="272.062767" style="fill: #216b91; stroke: #216b91; stroke-width: 1.5"/>
    </g>
   </g>
   <g id="PathCollection_4">
    <defs>
     <path id="m5bc3ed8113" d="M -3 3 
L 3 -3 
M -3 -3 
L 3 3 
" style="stroke: #d47d1f; stroke-width: 1.5"/>
    </defs>
    <g clip-path="url(#p5a6e092924)">
     <use xlink:href="#m5bc3ed8113" x="506.642961" y="271.867713" style="fill: #d47d1f; stroke: #d47d1f; stroke-width: 1.5"/>
     <use xlink:href="#m5bc3ed8113" x="675.384294" y="52.145776" style="fill: #d47d1f; stroke: #d47d1f; stroke-width: 1.5"/>
     <use xlink:href="#m5bc3ed8113" x="844.125627" y="271.917759" style="fill: #d47d1f; stroke: #d47d1f; stroke-width: 1.5"/>
    </g>
   </g>
   <g id="legend_2">
    <g id="patch_9">
     <path d="M 571.524294 385.98322 
L 779.244294 385.98322 
Q 781.044294 385.98322 781.044294 384.18322 
L 781.044294 331.080407 
Q 781.044294 329.280407 779.244294 329.280407 
L 571.524294 329.280407 
Q 569.724294 329.280407 569.724294 331.080407 
L 569.724294 384.18322 
Q 569.724294 385.98322 571.524294 385.98322 
z
" style="fill: #ffffff; opacity: 0.8; stroke: #cccccc; stroke-linejoin: miter"/>
    </g>
    <g id="line2d_34">
     <path d="M 573.324294 336.569001 
L 582.324294 336.569001 
L 591.324294 336.569001 
" style="fill: none; stroke: #216b91; stroke-width: 1.5; stroke-linecap: square"/>
    </g>
    <g id="text_37">
     <!-- Ausgangsmodell · Moden -->
     <g transform="translate(598.524294 339.719001) scale(0.09 -0.09)">
      <defs>
       <path id="DejaVuSans-79" d="M 684 2619 
L 1344 2619 
L 1344 1825 
L 684 1825 
L 684 2619 
z
" transform="scale(0.015625)"/>
      </defs>
      <use xlink:href="#DejaVuSans-24"/>
      <use xlink:href="#DejaVuSans-58" transform="translate(68.40625 0)"/>
      <use xlink:href="#DejaVuSans-56" transform="translate(131.78125 0)"/>
      <use xlink:href="#DejaVuSans-4a" transform="translate(183.875 0)"/>
      <use xlink:href="#DejaVuSans-44" transform="translate(247.359375 0)"/>
      <use xlink:href="#DejaVuSans-51" transform="translate(308.640625 0)"/>
      <use xlink:href="#DejaVuSans-4a" transform="translate(372.015625 0)"/>
      <use xlink:href="#DejaVuSans-56" transform="translate(435.5 0)"/>
      <use xlink:href="#DejaVuSans-50" transform="translate(487.59375 0)"/>
      <use xlink:href="#DejaVuSans-52" transform="translate(585 0)"/>
      <use xlink:href="#DejaVuSans-47" transform="translate(646.1875 0)"/>
      <use xlink:href="#DejaVuSans-48" transform="translate(709.671875 0)"/>
      <use xlink:href="#DejaVuSans-4f" transform="translate(771.203125 0)"/>
      <use xlink:href="#DejaVuSans-4f" transform="translate(798.984375 0)"/>
      <use xlink:href="#DejaVuSans-3" transform="translate(826.765625 0)"/>
      <use xlink:href="#DejaVuSans-79" transform="translate(858.546875 0)"/>
      <use xlink:href="#DejaVuSans-3" transform="translate(890.328125 0)"/>
      <use xlink:href="#DejaVuSans-30" transform="translate(922.109375 0)"/>
      <use xlink:href="#DejaVuSans-52" transform="translate(1008.390625 0)"/>
      <use xlink:href="#DejaVuSans-47" transform="translate(1069.578125 0)"/>
      <use xlink:href="#DejaVuSans-48" transform="translate(1133.0625 0)"/>
      <use xlink:href="#DejaVuSans-51" transform="translate(1194.59375 0)"/>
     </g>
    </g>
    <g id="PathCollection_5">
     <g>
      <use xlink:href="#m4b0791bcbc" x="582.324294" y="350.857204" style="fill: #216b91; stroke: #216b91; stroke-width: 1.5"/>
     </g>
    </g>
    <g id="text_38">
     <!-- Ausgangsmodell · Energie-Stichpunkte -->
     <g transform="translate(598.524294 353.219704) scale(0.09 -0.09)">
      <defs>
       <path id="DejaVuSans-28" d="M 628 4666 
L 3578 4666 
L 3578 4134 
L 1259 4134 
L 1259 2753 
L 3481 2753 
L 3481 2222 
L 1259 2222 
L 1259 531 
L 3634 531 
L 3634 0 
L 628 0 
L 628 4666 
z
" transform="scale(0.015625)"/>
       <path id="DejaVuSans-10" d="M 313 2009 
L 1997 2009 
L 1997 1497 
L 313 1497 
L 313 2009 
z
" transform="scale(0.015625)"/>
       <path id="DejaVuSans-53" d="M 1159 525 
L 1159 -1331 
L 581 -1331 
L 581 3500 
L 1159 3500 
L 1159 2969 
Q 1341 3281 1617 3432 
Q 1894 3584 2278 3584 
Q 2916 3584 3314 3078 
Q 3713 2572 3713 1747 
Q 3713 922 3314 415 
Q 2916 -91 2278 -91 
Q 1894 -91 1617 61 
Q 1341 213 1159 525 
z
M 3116 1747 
Q 3116 2381 2855 2742 
Q 2594 3103 2138 3103 
Q 1681 3103 1420 2742 
Q 1159 2381 1159 1747 
Q 1159 1113 1420 752 
Q 1681 391 2138 391 
Q 2594 391 2855 752 
Q 3116 1113 3116 1747 
z
" transform="scale(0.015625)"/>
      </defs>
      <use xlink:href="#DejaVuSans-24"/>
      <use xlink:href="#DejaVuSans-58" transform="translate(68.40625 0)"/>
      <use xlink:href="#DejaVuSans-56" transform="translate(131.78125 0)"/>
      <use xlink:href="#DejaVuSans-4a" transform="translate(183.875 0)"/>
      <use xlink:href="#DejaVuSans-44" transform="translate(247.359375 0)"/>
      <use xlink:href="#DejaVuSans-51" transform="translate(308.640625 0)"/>
      <use xlink:href="#DejaVuSans-4a" transform="translate(372.015625 0)"/>
      <use xlink:href="#DejaVuSans-56" transform="translate(435.5 0)"/>
      <use xlink:href="#DejaVuSans-50" transform="translate(487.59375 0)"/>
      <use xlink:href="#DejaVuSans-52" transform="translate(585 0)"/>
      <use xlink:href="#DejaVuSans-47" transform="translate(646.1875 0)"/>
      <use xlink:href="#DejaVuSans-48" transform="translate(709.671875 0)"/>
      <use xlink:href="#DejaVuSans-4f" transform="translate(771.203125 0)"/>
      <use xlink:href="#DejaVuSans-4f" transform="translate(798.984375 0)"/>
      <use xlink:href="#DejaVuSans-3" transform="translate(826.765625 0)"/>
      <use xlink:href="#DejaVuSans-79" transform="translate(858.546875 0)"/>
      <use xlink:href="#DejaVuSans-3" transform="translate(890.328125 0)"/>
      <use xlink:href="#DejaVuSans-28" transform="translate(922.109375 0)"/>
      <use xlink:href="#DejaVuSans-51" transform="translate(985.296875 0)"/>
      <use xlink:href="#DejaVuSans-48" transform="translate(1048.671875 0)"/>
      <use xlink:href="#DejaVuSans-55" transform="translate(1110.203125 0)"/>
      <use xlink:href="#DejaVuSans-4a" transform="translate(1149.5625 0)"/>
      <use xlink:href="#DejaVuSans-4c" transform="translate(1213.046875 0)"/>
      <use xlink:href="#DejaVuSans-48" transform="translate(1240.828125 0)"/>
      <use xlink:href="#DejaVuSans-10" transform="translate(1302.359375 0)"/>
      <use xlink:href="#DejaVuSans-36" transform="translate(1338.4375 0)"/>
      <use xlink:href="#DejaVuSans-57" transform="translate(1401.921875 0)"/>
      <use xlink:href="#DejaVuSans-4c" transform="translate(1441.125 0)"/>
      <use xlink:href="#DejaVuSans-46" transform="translate(1468.90625 0)"/>
      <use xlink:href="#DejaVuSans-4b" transform="translate(1523.890625 0)"/>
      <use xlink:href="#DejaVuSans-53" transform="translate(1587.265625 0)"/>
      <use xlink:href="#DejaVuSans-58" transform="translate(1650.75 0)"/>
      <use xlink:href="#DejaVuSans-51" transform="translate(1714.125 0)"/>
      <use xlink:href="#DejaVuSans-4e" transform="translate(1777.5 0)"/>
      <use xlink:href="#DejaVuSans-57" transform="translate(1835.40625 0)"/>
      <use xlink:href="#DejaVuSans-48" transform="translate(1874.609375 0)"/>
     </g>
    </g>
    <g id="line2d_35">
     <path d="M 573.324294 363.570407 
L 582.324294 363.570407 
L 591.324294 363.570407 
" style="fill: none; stroke: #d47d1f; stroke-width: 1.5; stroke-linecap: square"/>
    </g>
    <g id="text_39">
     <!-- Frequenzabgleich · Moden -->
     <g transform="translate(598.524294 366.720407) scale(0.09 -0.09)">
      <use xlink:href="#DejaVuSans-29"/>
      <use xlink:href="#DejaVuSans-55" transform="translate(50.234375 0)"/>
      <use xlink:href="#DejaVuSans-48" transform="translate(89.140625 0)"/>
      <use xlink:href="#DejaVuSans-54" transform="translate(150.671875 0)"/>
      <use xlink:href="#DejaVuSans-58" transform="translate(214.15625 0)"/>
      <use xlink:href="#DejaVuSans-48" transform="translate(277.53125 0)"/>
      <use xlink:href="#DejaVuSans-51" transform="translate(339.0625 0)"/>
      <use xlink:href="#DejaVuSans-5d" transform="translate(402.4375 0)"/>
      <use xlink:href="#DejaVuSans-44" transform="translate(454.921875 0)"/>
      <use xlink:href="#DejaVuSans-45" transform="translate(516.203125 0)"/>
      <use xlink:href="#DejaVuSans-4a" transform="translate(579.6875 0)"/>
      <use xlink:href="#DejaVuSans-4f" transform="translate(643.171875 0)"/>
      <use xlink:href="#DejaVuSans-48" transform="translate(670.953125 0)"/>
      <use xlink:href="#DejaVuSans-4c" transform="translate(732.484375 0)"/>
      <use xlink:href="#DejaVuSans-46" transform="translate(760.265625 0)"/>
      <use xlink:href="#DejaVuSans-4b" transform="translate(815.25 0)"/>
      <use xlink:href="#DejaVuSans-3" transform="translate(878.625 0)"/>
      <use xlink:href="#DejaVuSans-79" transform="translate(910.40625 0)"/>
      <use xlink:href="#DejaVuSans-3" transform="translate(942.1875 0)"/>
      <use xlink:href="#DejaVuSans-30" transform="translate(973.96875 0)"/>
      <use xlink:href="#DejaVuSans-52" transform="translate(1060.25 0)"/>
      <use xlink:href="#DejaVuSans-47" transform="translate(1121.4375 0)"/>
      <use xlink:href="#DejaVuSans-48" transform="translate(1184.921875 0)"/>
      <use xlink:href="#DejaVuSans-51" transform="translate(1246.453125 0)"/>
     </g>
    </g>
    <g id="PathCollection_6">
     <g>
      <use xlink:href="#m5bc3ed8113" x="582.324294" y="377.85861" style="fill: #d47d1f; stroke: #d47d1f; stroke-width: 1.5"/>
     </g>
    </g>
    <g id="text_40">
     <!-- Frequenzabgleich · Energie-Stichpunkte -->
     <g transform="translate(598.524294 380.22111) scale(0.09 -0.09)">
      <use xlink:href="#DejaVuSans-29"/>
      <use xlink:href="#DejaVuSans-55" transform="translate(50.234375 0)"/>
      <use xlink:href="#DejaVuSans-48" transform="translate(89.140625 0)"/>
      <use xlink:href="#DejaVuSans-54" transform="translate(150.671875 0)"/>
      <use xlink:href="#DejaVuSans-58" transform="translate(214.15625 0)"/>
      <use xlink:href="#DejaVuSans-48" transform="translate(277.53125 0)"/>
      <use xlink:href="#DejaVuSans-51" transform="translate(339.0625 0)"/>
      <use xlink:href="#DejaVuSans-5d" transform="translate(402.4375 0)"/>
      <use xlink:href="#DejaVuSans-44" transform="translate(454.921875 0)"/>
      <use xlink:href="#DejaVuSans-45" transform="translate(516.203125 0)"/>
      <use xlink:href="#DejaVuSans-4a" transform="translate(579.6875 0)"/>
      <use xlink:href="#DejaVuSans-4f" transform="translate(643.171875 0)"/>
      <use xlink:href="#DejaVuSans-48" transform="translate(670.953125 0)"/>
      <use xlink:href="#DejaVuSans-4c" transform="translate(732.484375 0)"/>
      <use xlink:href="#DejaVuSans-46" transform="translate(760.265625 0)"/>
      <use xlink:href="#DejaVuSans-4b" transform="translate(815.25 0)"/>
      <use xlink:href="#DejaVuSans-3" transform="translate(878.625 0)"/>
      <use xlink:href="#DejaVuSans-79" transform="translate(910.40625 0)"/>
      <use xlink:href="#DejaVuSans-3" transform="translate(942.1875 0)"/>
      <use xlink:href="#DejaVuSans-28" transform="translate(973.96875 0)"/>
      <use xlink:href="#DejaVuSans-51" transform="translate(1037.15625 0)"/>
      <use xlink:href="#DejaVuSans-48" transform="translate(1100.53125 0)"/>
      <use xlink:href="#DejaVuSans-55" transform="translate(1162.0625 0)"/>
      <use xlink:href="#DejaVuSans-4a" transform="translate(1201.421875 0)"/>
      <use xlink:href="#DejaVuSans-4c" transform="translate(1264.90625 0)"/>
      <use xlink:href="#DejaVuSans-48" transform="translate(1292.6875 0)"/>
      <use xlink:href="#DejaVuSans-10" transform="translate(1354.21875 0)"/>
      <use xlink:href="#DejaVuSans-36" transform="translate(1390.296875 0)"/>
      <use xlink:href="#DejaVuSans-57" transform="translate(1453.78125 0)"/>
      <use xlink:href="#DejaVuSans-4c" transform="translate(1492.984375 0)"/>
      <use xlink:href="#DejaVuSans-46" transform="translate(1520.765625 0)"/>
      <use xlink:href="#DejaVuSans-4b" transform="translate(1575.75 0)"/>
      <use xlink:href="#DejaVuSans-53" transform="translate(1639.125 0)"/>
      <use xlink:href="#DejaVuSans-58" transform="translate(1702.609375 0)"/>
      <use xlink:href="#DejaVuSans-51" transform="translate(1765.984375 0)"/>
      <use xlink:href="#DejaVuSans-4e" transform="translate(1829.359375 0)"/>
      <use xlink:href="#DejaVuSans-57" transform="translate(1887.265625 0)"/>
      <use xlink:href="#DejaVuSans-48" transform="translate(1926.46875 0)"/>
     </g>
    </g>
   </g>
  </g>
  <g id="text_41">
   <!-- Konzentrisches lineares Feldmodell · Schalenradien 6 und 10 -->
   <g transform="translate(234.22125 12.878209) scale(0.13 -0.13)">
    <defs>
     <path id="DejaVuSans-2e" d="M 628 4666 
L 1259 4666 
L 1259 2694 
L 3353 4666 
L 4166 4666 
L 1850 2491 
L 4331 0 
L 3500 0 
L 1259 2247 
L 1259 0 
L 628 0 
L 628 4666 
z
" transform="scale(0.015625)"/>
    </defs>
    <use xlink:href="#DejaVuSans-2e"/>
    <use xlink:href="#DejaVuSans-52" transform="translate(60.59375 0)"/>
    <use xlink:href="#DejaVuSans-51" transform="translate(121.78125 0)"/>
    <use xlink:href="#DejaVuSans-5d" transform="translate(185.15625 0)"/>
    <use xlink:href="#DejaVuSans-48" transform="translate(237.640625 0)"/>
    <use xlink:href="#DejaVuSans-51" transform="translate(299.171875 0)"/>
    <use xlink:href="#DejaVuSans-57" transform="translate(362.546875 0)"/>
    <use xlink:href="#DejaVuSans-55" transform="translate(401.75 0)"/>
    <use xlink:href="#DejaVuSans-4c" transform="translate(442.859375 0)"/>
    <use xlink:href="#DejaVuSans-56" transform="translate(470.640625 0)"/>
    <use xlink:href="#DejaVuSans-46" transform="translate(522.734375 0)"/>
    <use xlink:href="#DejaVuSans-4b" transform="translate(577.71875 0)"/>
    <use xlink:href="#DejaVuSans-48" transform="translate(641.09375 0)"/>
    <use xlink:href="#DejaVuSans-56" transform="translate(702.625 0)"/>
    <use xlink:href="#DejaVuSans-3" transform="translate(754.71875 0)"/>
    <use xlink:href="#DejaVuSans-4f" transform="translate(786.5 0)"/>
    <use xlink:href="#DejaVuSans-4c" transform="translate(814.28125 0)"/>
    <use xlink:href="#DejaVuSans-51" transform="translate(842.0625 0)"/>
    <use xlink:href="#DejaVuSans-48" transform="translate(905.4375 0)"/>
    <use xlink:href="#DejaVuSans-44" transform="translate(966.96875 0)"/>
    <use xlink:href="#DejaVuSans-55" transform="translate(1028.25 0)"/>
    <use xlink:href="#DejaVuSans-48" transform="translate(1067.15625 0)"/>
    <use xlink:href="#DejaVuSans-56" transform="translate(1128.6875 0)"/>
    <use xlink:href="#DejaVuSans-3" transform="translate(1180.78125 0)"/>
    <use xlink:href="#DejaVuSans-29" transform="translate(1212.5625 0)"/>
    <use xlink:href="#DejaVuSans-48" transform="translate(1264.609375 0)"/>
    <use xlink:href="#DejaVuSans-4f" transform="translate(1326.140625 0)"/>
    <use xlink:href="#DejaVuSans-47" transform="translate(1353.921875 0)"/>
    <use xlink:href="#DejaVuSans-50" transform="translate(1417.40625 0)"/>
    <use xlink:href="#DejaVuSans-52" transform="translate(1514.8125 0)"/>
    <use xlink:href="#DejaVuSans-47" transform="translate(1576 0)"/>
    <use xlink:href="#DejaVuSans-48" transform="translate(1639.484375 0)"/>
    <use xlink:href="#DejaVuSans-4f" transform="translate(1701.015625 0)"/>
    <use xlink:href="#DejaVuSans-4f" transform="translate(1728.796875 0)"/>
    <use xlink:href="#DejaVuSans-3" transform="translate(1756.578125 0)"/>
    <use xlink:href="#DejaVuSans-79" transform="translate(1788.359375 0)"/>
    <use xlink:href="#DejaVuSans-3" transform="translate(1820.140625 0)"/>
    <use xlink:href="#DejaVuSans-36" transform="translate(1851.921875 0)"/>
    <use xlink:href="#DejaVuSans-46" transform="translate(1915.40625 0)"/>
    <use xlink:href="#DejaVuSans-4b" transform="translate(1970.390625 0)"/>
    <use xlink:href="#DejaVuSans-44" transform="translate(2033.765625 0)"/>
    <use xlink:href="#DejaVuSans-4f" transform="translate(2095.046875 0)"/>
    <use xlink:href="#DejaVuSans-48" transform="translate(2122.828125 0)"/>
    <use xlink:href="#DejaVuSans-51" transform="translate(2184.359375 0)"/>
    <use xlink:href="#DejaVuSans-55" transform="translate(2247.734375 0)"/>
    <use xlink:href="#DejaVuSans-44" transform="translate(2288.84375 0)"/>
    <use xlink:href="#DejaVuSans-47" transform="translate(2350.125 0)"/>
    <use xlink:href="#DejaVuSans-4c" transform="translate(2413.609375 0)"/>
    <use xlink:href="#DejaVuSans-48" transform="translate(2441.390625 0)"/>
    <use xlink:href="#DejaVuSans-51" transform="translate(2502.921875 0)"/>
    <use xlink:href="#DejaVuSans-3" transform="translate(2566.296875 0)"/>
    <use xlink:href="#DejaVuSans-19" transform="translate(2598.078125 0)"/>
    <use xlink:href="#DejaVuSans-3" transform="translate(2661.703125 0)"/>
    <use xlink:href="#DejaVuSans-58" transform="translate(2693.484375 0)"/>
    <use xlink:href="#DejaVuSans-51" transform="translate(2756.859375 0)"/>
    <use xlink:href="#DejaVuSans-47" transform="translate(2820.234375 0)"/>
    <use xlink:href="#DejaVuSans-3" transform="translate(2883.71875 0)"/>
    <use xlink:href="#DejaVuSans-14" transform="translate(2915.5 0)"/>
    <use xlink:href="#DejaVuSans-13" transform="translate(2979.125 0)"/>
   </g>
  </g>
 </g>
 <defs>
  <clipPath id="p537d839162">
   <rect x="56.449068" y="38.031673" width="371.230932" height="235.039946"/>
  </clipPath>
  <clipPath id="p5a6e092924">
   <rect x="489.768828" y="38.031673" width="371.230932" height="235.039946"/>
  </clipPath>
 </defs>
</svg>
