<svg xmlns="http://www.w3.org/2000/svg" width="760" height="440" font-family="sans-serif" font-size="12">
<rect width="100%" height="100%" fill="white"/>
<text x="80" y="22" font-size="14">Omega^2(q) (G=0: phi-Frequenz, Textur ruht)</text>
<rect x="80" y="40" width="480" height="340" fill="none" stroke="#333"/>
<line x1="80.0" y1="40" x2="80.0" y2="380" stroke="#ddd"/>
<text x="80.0" y="396" text-anchor="middle">0</text>
<line x1="80" y1="380.0" x2="560" y2="380.0" stroke="#ddd"/>
<text x="74" y="384.0" text-anchor="end">-0.09478</text>
<line x1="176.0" y1="40" x2="176.0" y2="380" stroke="#ddd"/>
<text x="176.0" y="396" text-anchor="middle">3</text>
<line x1="80" y1="312.0" x2="560" y2="312.0" stroke="#ddd"/>
<text x="74" y="316.0" text-anchor="end">0.3222</text>
<line x1="272.0" y1="40" x2="272.0" y2="380" stroke="#ddd"/>
<text x="272.0" y="396" text-anchor="middle">6</text>
<line x1="80" y1="244.0" x2="560" y2="244.0" stroke="#ddd"/>
<text x="74" y="248.0" text-anchor="end">0.7392</text>
<line x1="368.0" y1="40" x2="368.0" y2="380" stroke="#ddd"/>
<text x="368.0" y="396" text-anchor="middle">9</text>
<line x1="80" y1="176.0" x2="560" y2="176.0" stroke="#ddd"/>
<text x="74" y="180.0" text-anchor="end">1.156</text>
<line x1="464.0" y1="40" x2="464.0" y2="380" stroke="#ddd"/>
<text x="464.0" y="396" text-anchor="middle">12</text>
<line x1="80" y1="108.0" x2="560" y2="108.0" stroke="#ddd"/>
<text x="74" y="112.0" text-anchor="end">1.573</text>
<line x1="560.0" y1="40" x2="560.0" y2="380" stroke="#ddd"/>
<text x="560.0" y="396" text-anchor="middle">15</text>
<line x1="80" y1="40.0" x2="560" y2="40.0" stroke="#ddd"/>
<text x="74" y="44.0" text-anchor="end">1.99</text>
<text x="320" y="426" text-anchor="middle">q</text>
<text x="18" y="210" transform="rotate(-90 18 210)" text-anchor="middle">Omega^2</text>
<line x1="80" y1="283.0" x2="560" y2="283.0" stroke="#999" stroke-dasharray="6,4"/>
<text x="556" y="279.0" fill="#666">1/2</text>
<line x1="80" y1="201.5" x2="560" y2="201.5" stroke="#999" stroke-dasharray="6,4"/>
<text x="556" y="197.5" fill="#666">1</text>
<polyline points="80.0,364.5 96.0,364.4 112.0,364.0 128.0,363.4 144.0,362.5 160.0,361.4 176.0,360.1 192.0,358.5 208.0,356.6 224.0,354.6 240.0,352.3 256.0,349.8 272.0,347.1 288.0,344.2 304.0,341.1 320.0,337.8 336.0,334.4 352.0,330.7 368.0,327.0 384.0,323.0 400.0,319.0 416.0,314.9 432.0,310.6 448.0,306.3 464.0,301.9 480.0,297.4 496.0,292.9 512.0,288.4" fill="none" stroke="#1f5fa8" stroke-width="1.8" stroke-dasharray="2,3"/>
<circle cx="80.0" cy="364.5" r="2.2" fill="#1f5fa8"/>
<circle cx="96.0" cy="364.4" r="2.2" fill="#1f5fa8"/>
<circle cx="112.0" cy="364.0" r="2.2" fill="#1f5fa8"/>
<circle cx="128.0" cy="363.4" r="2.2" fill="#1f5fa8"/>
<circle cx="144.0" cy="362.5" r="2.2" fill="#1f5fa8"/>
<circle cx="160.0" cy="361.4" r="2.2" fill="#1f5fa8"/>
<circle cx="176.0" cy="360.1" r="2.2" fill="#1f5fa8"/>
<circle cx="192.0" cy="358.5" r="2.2" fill="#1f5fa8"/>
<circle cx="208.0" cy="356.6" r="2.2" fill="#1f5fa8"/>
<circle cx="224.0" cy="354.6" r="2.2" fill="#1f5fa8"/>
<circle cx="240.0" cy="352.3" r="2.2" fill="#1f5fa8"/>
<circle cx="256.0" cy="349.8" r="2.2" fill="#1f5fa8"/>
<circle cx="272.0" cy="347.1" r="2.2" fill="#1f5fa8"/>
<circle cx="288.0" cy="344.2" r="2.2" fill="#1f5fa8"/>
<circle cx="304.0" cy="341.1" r="2.2" fill="#1f5fa8"/>
<circle cx="320.0" cy="337.8" r="2.2" fill="#1f5fa8"/>
<circle cx="336.0" cy="334.4" r="2.2" fill="#1f5fa8"/>
<circle cx="352.0" cy="330.7" r="2.2" fill="#1f5fa8"/>
<circle cx="368.0" cy="327.0" r="2.2" fill="#1f5fa8"/>
<circle cx="384.0" cy="323.0" r="2.2" fill="#1f5fa8"/>
<circle cx="400.0" cy="319.0" r="2.2" fill="#1f5fa8"/>
<circle cx="416.0" cy="314.9" r="2.2" fill="#1f5fa8"/>
<circle cx="432.0" cy="310.6" r="2.2" fill="#1f5fa8"/>
<circle cx="448.0" cy="306.3" r="2.2" fill="#1f5fa8"/>
<circle cx="464.0" cy="301.9" r="2.2" fill="#1f5fa8"/>
<circle cx="480.0" cy="297.4" r="2.2" fill="#1f5fa8"/>
<circle cx="496.0" cy="292.9" r="2.2" fill="#1f5fa8"/>
<circle cx="512.0" cy="288.4" r="2.2" fill="#1f5fa8"/>
<line x1="570" y1="50" x2="594" y2="50" stroke="#1f5fa8" stroke-width="2" stroke-dasharray="2,3"/>
<text x="600" y="54">H kappa=1.0</text>
<polyline points="160.0,206.5 240.0,212.4 320.0,220.5 400.0,228.7 480.0,235.4 560.0,240.1" fill="none" stroke="#2e8b57" stroke-width="1.8" />
<circle cx="160.0" cy="206.5" r="2.2" fill="#2e8b57"/>
<circle cx="240.0" cy="212.4" r="2.2" fill="#2e8b57"/>
<circle cx="320.0" cy="220.5" r="2.2" fill="#2e8b57"/>
<circle cx="400.0" cy="228.7" r="2.2" fill="#2e8b57"/>
<circle cx="480.0" cy="235.4" r="2.2" fill="#2e8b57"/>
<circle cx="560.0" cy="240.1" r="2.2" fill="#2e8b57"/>
<line x1="570" y1="86" x2="594" y2="86" stroke="#2e8b57" stroke-width="2" />
<text x="600" y="90">mix kappa=1.0 G=0</text>
<polyline points="80.0,364.5 96.0,363.1 112.0,358.8 128.0,351.6 144.0,341.7 160.0,329.1 176.0,314.1 192.0,296.8 208.0,277.4 224.0,256.2 240.0,233.5 256.0,209.4 272.0,184.3 288.0,158.6 304.0,132.5 320.0,106.4 336.0,80.6 352.0,55.5" fill="none" stroke="#7d3c98" stroke-width="1.8" stroke-dasharray="2,3"/>
<circle cx="80.0" cy="364.5" r="2.2" fill="#7d3c98"/>
<circle cx="96.0" cy="363.1" r="2.2" fill="#7d3c98"/>
<circle cx="112.0" cy="358.8" r="2.2" fill="#7d3c98"/>
<circle cx="128.0" cy="351.6" r="2.2" fill="#7d3c98"/>
<circle cx="144.0" cy="341.7" r="2.2" fill="#7d3c98"/>
<circle cx="160.0" cy="329.1" r="2.2" fill="#7d3c98"/>
<circle cx="176.0" cy="314.1" r="2.2" fill="#7d3c98"/>
<circle cx="192.0" cy="296.8" r="2.2" fill="#7d3c98"/>
<circle cx="208.0" cy="277.4" r="2.2" fill="#7d3c98"/>
<circle cx="224.0" cy="256.2" r="2.2" fill="#7d3c98"/>
<circle cx="240.0" cy="233.5" r="2.2" fill="#7d3c98"/>
<circle cx="256.0" cy="209.4" r="2.2" fill="#7d3c98"/>
<circle cx="272.0" cy="184.3" r="2.2" fill="#7d3c98"/>
<circle cx="288.0" cy="158.6" r="2.2" fill="#7d3c98"/>
<circle cx="304.0" cy="132.5" r="2.2" fill="#7d3c98"/>
<circle cx="320.0" cy="106.4" r="2.2" fill="#7d3c98"/>
<circle cx="336.0" cy="80.6" r="2.2" fill="#7d3c98"/>
<circle cx="352.0" cy="55.5" r="2.2" fill="#7d3c98"/>
<line x1="570" y1="104" x2="594" y2="104" stroke="#7d3c98" stroke-width="2" stroke-dasharray="2,3"/>
<text x="600" y="108">H kappa=0.25</text>
<polyline points="240.0,204.7 320.0,211.7 400.0,221.1 480.0,229.4 560.0,235.7" fill="none" stroke="#6e2c00" stroke-width="1.8" />
<circle cx="240.0" cy="204.7" r="2.2" fill="#6e2c00"/>
<circle cx="320.0" cy="211.7" r="2.2" fill="#6e2c00"/>
<circle cx="400.0" cy="221.1" r="2.2" fill="#6e2c00"/>
<circle cx="480.0" cy="229.4" r="2.2" fill="#6e2c00"/>
<circle cx="560.0" cy="235.7" r="2.2" fill="#6e2c00"/>
<line x1="570" y1="140" x2="594" y2="140" stroke="#6e2c00" stroke-width="2" />
<text x="600" y="144">mix kappa=0.25 G=0</text>
</svg>